<svg width="110" height="23" viewBox="0 0 110 23" fill="none" xmlns="http://www.w3.org/2000/svg">
<path d="M8.68108 22.2068C7.16483 22.2068 5.80611 21.9606 4.60492 21.4683C3.40373 20.976 2.43884 20.2474 1.71025 19.2826C1.00135 18.3177 0.627208 17.1559 0.587825 15.7971H5.96364C6.04241 16.5651 6.30824 17.1559 6.76115 17.5694C7.21406 17.9632 7.80481 18.1601 8.5334 18.1601C9.28168 18.1601 9.87243 17.9928 10.3056 17.658C10.7389 17.3035 10.9555 16.8211 10.9555 16.2107C10.9555 15.6987 10.7782 15.2753 10.4238 14.9406C10.089 14.6058 9.66567 14.3301 9.15368 14.1135C8.66139 13.8969 7.95249 13.6507 7.02699 13.3751C5.68796 12.9615 4.59507 12.548 3.74833 12.1345C2.90159 11.721 2.173 11.1105 1.56256 10.3032C0.95212 9.49582 0.646899 8.44231 0.646899 7.14267C0.646899 5.21289 1.34595 3.70648 2.74406 2.62344C4.14216 1.52071 5.96364 0.96934 8.20849 0.96934C10.4927 0.96934 12.3339 1.52071 13.732 2.62344C15.1301 3.70648 15.8784 5.22273 15.9768 7.1722H10.5124C10.473 6.50269 10.2269 5.98086 9.77397 5.60672C9.32106 5.21289 8.74016 5.01597 8.03126 5.01597C7.42082 5.01597 6.92853 5.18335 6.55439 5.51811C6.18025 5.83317 5.99318 6.29592 5.99318 6.90637C5.99318 7.57588 6.30824 8.09771 6.93837 8.47185C7.56851 8.84599 8.55309 9.24967 9.89212 9.68289C11.2312 10.1358 12.3142 10.569 13.1412 10.9825C13.988 11.3961 14.7166 11.9967 15.327 12.7843C15.9374 13.572 16.2427 14.5861 16.2427 15.8267C16.2427 17.0082 15.9374 18.0814 15.327 19.0463C14.7363 20.0111 13.8698 20.7791 12.7277 21.3502C11.5856 21.9212 10.2367 22.2068 8.68108 22.2068ZM24.4019 1.26471V22H19.351V1.26471H24.4019ZM40.084 22L33.1132 12.8434V22H28.0623V1.26471H33.1132V10.3622L40.0249 1.26471H45.962L37.9278 11.4256L46.2573 22H40.084ZM58.4641 22.2068C56.5147 22.2068 54.7227 21.7539 53.0883 20.848C51.4736 19.9422 50.1838 18.682 49.2189 17.0672C48.2737 15.4328 47.8011 13.6015 47.8011 11.5733C47.8011 9.54504 48.2737 7.72357 49.2189 6.10885C50.1838 4.49414 51.4736 3.23388 53.0883 2.32806C54.7227 1.42225 56.5147 0.96934 58.4641 0.96934C60.4136 0.96934 62.1957 1.42225 63.8104 2.32806C65.4448 3.23388 66.7248 4.49414 67.6503 6.10885C68.5955 7.72357 69.0681 9.54504 69.0681 11.5733C69.0681 13.6015 68.5955 15.4328 67.6503 17.0672C66.7051 18.682 65.4251 19.9422 63.8104 20.848C62.1957 21.7539 60.4136 22.2068 58.4641 22.2068ZM58.4641 17.5989C60.1182 17.5989 61.4376 17.0476 62.4222 15.9448C63.4264 14.8421 63.9286 13.3849 63.9286 11.5733C63.9286 9.74196 63.4264 8.28478 62.4222 7.20174C61.4376 6.09901 60.1182 5.54764 58.4641 5.54764C56.7904 5.54764 55.4513 6.08916 54.447 7.1722C53.4625 8.25524 52.9702 9.72227 52.9702 11.5733C52.9702 13.4046 53.4625 14.8716 54.447 15.9744C55.4513 17.0574 56.7904 17.5989 58.4641 17.5989ZM83.8998 22L76.929 12.8434V22H71.8781V1.26471H76.929V10.3622L83.8407 1.26471H89.7778L81.7436 11.4256L90.0731 22H83.8998ZM97.4358 1.26471V13.6704C97.4358 14.911 97.741 15.8661 98.3515 16.5356C98.9619 17.2051 99.8579 17.5398 101.039 17.5398C102.221 17.5398 103.127 17.2051 103.757 16.5356C104.387 15.8661 104.702 14.911 104.702 13.6704V1.26471H109.753V13.6409C109.753 15.4919 109.359 17.0574 108.571 18.3374C107.784 19.6173 106.72 20.5822 105.381 21.232C104.062 21.8819 102.585 22.2068 100.951 22.2068C99.3163 22.2068 97.8493 21.8917 96.5497 21.2616C95.2697 20.6117 94.2556 19.6469 93.5073 18.3669C92.759 17.0672 92.3849 15.4919 92.3849 13.6409V1.26471H97.4358Z" fill="url(#paint0_linear_350_667)"/>
<defs>
<linearGradient id="paint0_linear_350_667" x1="18.3876" y1="-10" x2="54.7032" y2="34.5741" gradientUnits="userSpaceOnUse">
<stop stop-color="#D163D8"/>
<stop offset="1" stop-color="#602FD3"/>
</linearGradient>
</defs>
</svg>
