<svg width="544" height="543" viewBox="0 0 544 543" fill="none" xmlns="http://www.w3.org/2000/svg">
<path d="M446.399 265.704C446.399 265.704 436.916 265.022 437.79 286.284C438.664 307.547 440.831 318.885 440.831 318.885C440.831 318.885 440.544 323.59 436.893 322.668C433.241 321.746 426.369 317.161 422.981 320.585C419.593 324.009 420.718 329.6 425.375 336.029C430.032 342.458 439.742 356.909 440.616 358.226C441.49 359.543 441.813 361.925 439.227 361.686C436.641 361.446 419.174 355.532 416.851 363.996C414.528 372.461 430.487 388.228 432.199 389.988C433.911 391.748 433.995 392.85 433.301 393.915C432.606 394.981 426.932 392.431 421.891 390.958C416.851 389.485 410.745 388.635 409.823 393.628C408.901 398.62 415.917 413.238 442.22 428.587L454.875 434.908L466.847 427.27C491.486 409.311 497.005 394.119 495.581 389.246C494.156 384.373 488.158 385.81 483.369 387.785C478.58 389.761 473.097 392.862 472.295 391.88C471.492 390.898 471.48 389.773 473.013 387.857C474.545 385.942 488.828 368.702 485.68 360.465C482.531 352.228 465.734 359.914 463.184 360.405C460.634 360.896 460.729 358.465 461.448 357.1C462.166 355.736 470.403 340.339 474.402 333.491C478.4 326.643 479.107 321.064 475.252 317.927C471.397 314.79 465.147 320.106 461.615 321.399C458.083 322.692 457.317 318.011 457.317 318.011C457.317 318.011 458.347 306.529 457.09 285.279C455.833 264.028 446.255 265.704 446.255 265.704" fill="#ACD900"/>
<path d="M447.141 284.752C447.141 284.752 447.141 284.896 447.141 285.195C447.141 285.494 447.201 285.937 447.249 286.5C447.32 287.697 447.44 289.361 447.584 291.516C447.871 295.886 448.254 302.196 448.685 310.001C449.547 325.565 450.565 347.175 451.607 371C452.648 394.825 453.606 416.411 454.384 432.059C454.779 439.853 455.103 446.162 455.318 450.544C455.426 452.711 455.51 454.399 455.569 455.572C455.569 456.135 455.569 456.566 455.629 456.889C455.637 457.037 455.637 457.185 455.629 457.332C455.629 457.332 455.629 457.177 455.629 456.889C455.629 456.602 455.569 456.135 455.522 455.584C455.45 454.387 455.33 452.723 455.186 450.556C454.887 446.198 454.516 439.889 454.085 432.083C453.223 416.519 452.205 394.897 451.164 371.024C450.122 347.151 449.164 325.625 448.386 309.966C447.991 302.184 447.668 295.874 447.44 291.48C447.344 289.313 447.249 287.625 447.201 286.452C447.201 285.901 447.201 285.458 447.141 285.147C447.135 285.015 447.135 284.884 447.141 284.752Z" fill="#399E2D"/>
<path d="M432.331 327.397C432.621 327.578 432.886 327.796 433.121 328.043C433.612 328.486 434.318 329.157 435.133 329.971C436.797 331.635 439.048 333.982 441.478 336.616L447.668 343.38L449.547 345.427C449.797 345.66 450.018 345.921 450.206 346.205C449.916 346.024 449.651 345.807 449.416 345.559C448.925 345.116 448.218 344.457 447.416 343.619C445.764 341.943 443.549 339.573 441.119 336.939L434.881 330.21L432.99 328.175C432.74 327.943 432.519 327.682 432.331 327.397Z" fill="#399E2D"/>
<path d="M451.463 345.786C451.367 345.691 455.988 340.854 461.795 335.011C467.601 329.169 472.378 324.44 472.474 324.536C472.57 324.631 467.949 329.468 462.142 335.311C456.335 341.153 451.559 345.882 451.463 345.786Z" fill="#399E2D"/>
<path d="M451.403 382.458C451.677 382.239 451.974 382.05 452.289 381.895L454.767 380.506C456.85 379.309 459.736 377.705 462.849 375.789C465.961 373.873 468.727 372.066 470.714 370.725L473.109 369.156C473.389 368.946 473.69 368.766 474.007 368.618C474.007 368.618 473.743 368.893 473.217 369.312C472.69 369.731 471.924 370.306 470.942 371.012C469.002 372.425 466.261 374.293 463.136 376.208C460.011 378.124 457.15 379.716 454.959 380.805C453.893 381.356 453.019 381.787 452.409 382.063C452.095 382.244 451.756 382.377 451.403 382.458Z" fill="#399E2D"/>
<path d="M430.44 369.623C430.752 369.724 431.05 369.864 431.326 370.042C431.864 370.33 432.654 370.761 433.612 371.311C435.54 372.401 438.186 373.945 441.095 375.669C444.004 377.393 446.614 378.986 448.494 380.159C449.44 380.746 450.194 381.224 450.709 381.572C450.991 381.725 451.253 381.914 451.487 382.134C451.176 382.045 450.881 381.908 450.613 381.727C450.062 381.44 449.284 380.997 448.314 380.458C446.399 379.357 443.753 377.824 440.843 376.088C437.934 374.352 435.324 372.772 433.445 371.611C432.499 371.024 431.745 370.545 431.23 370.198C430.94 370.046 430.673 369.853 430.44 369.623Z" fill="#399E2D"/>
<path d="M426.285 401.996C426.679 402.126 427.053 402.307 427.399 402.535L430.344 404.151C432.822 405.54 436.222 407.492 439.922 409.671C443.621 411.85 447.045 413.849 449.499 415.31L452.373 417.069C452.735 417.27 453.076 417.507 453.39 417.776C453.002 417.633 452.629 417.453 452.277 417.237L449.332 415.609C446.854 414.22 443.441 412.269 439.754 410.09C436.067 407.911 432.63 405.911 430.176 404.451L427.303 402.691C426.943 402.491 426.602 402.259 426.285 401.996Z" fill="#399E2D"/>
<path d="M452.864 417.213C453.212 416.939 453.58 416.691 453.965 416.471L457.042 414.603C459.64 413.023 463.22 410.82 467.099 408.294C470.978 405.768 474.45 403.385 476.94 401.649L479.897 399.59C480.25 399.32 480.626 399.084 481.022 398.884C480.708 399.199 480.367 399.487 480.005 399.746C479.346 400.272 478.365 401.015 477.143 401.925C474.749 403.732 471.265 406.163 467.362 408.701C463.459 411.239 459.855 413.394 457.222 414.902C455.893 415.645 454.827 416.243 454.061 416.638C453.68 416.866 453.279 417.058 452.864 417.213Z" fill="#399E2D"/>
<path d="M471.888 439.051H436.881L448.302 525.538H460.454L471.888 439.051Z" fill="#7F3E3B"/>
<path d="M438.688 449.694C438.688 449.694 438.688 449.814 438.88 450.005C439.112 450.269 439.404 450.474 439.73 450.604C440.338 450.816 440.987 450.885 441.627 450.806C442.266 450.727 442.879 450.502 443.417 450.149C444.842 449.371 446.063 447.838 447.967 447.168C450.063 446.49 452.326 446.532 454.396 447.287C456.501 448.013 458.511 448.989 460.382 450.197C461.948 451.171 463.576 452.043 465.255 452.807C466.397 453.322 467.606 453.672 468.847 453.848C469.183 453.901 469.524 453.925 469.864 453.92C470.104 453.92 470.223 453.92 470.223 453.92C468.568 453.666 466.956 453.182 465.434 452.483C463.786 451.676 462.187 450.773 460.646 449.778C458.745 448.525 456.694 447.52 454.54 446.785C452.351 445.99 449.957 445.965 447.751 446.713C446.814 447.091 445.948 447.625 445.189 448.293C444.559 448.853 443.891 449.369 443.19 449.837C442.698 450.177 442.138 450.406 441.549 450.509C440.96 450.613 440.356 450.588 439.778 450.436C439.374 450.254 439.005 450.003 438.688 449.694Z" fill="#F5F5F5"/>
<path d="M439.969 465.617C439.969 465.617 440.245 465.258 440.796 464.683C441.593 463.901 442.548 463.297 443.597 462.911C445.152 462.346 446.805 462.098 448.458 462.181C450.504 462.328 452.54 462.604 454.552 463.007C456.607 463.4 458.708 463.489 460.789 463.27C462.485 463.045 464.139 462.573 465.698 461.87C466.743 461.396 467.731 460.806 468.643 460.11C468.996 459.881 469.311 459.598 469.577 459.272C468.286 460.114 466.933 460.858 465.53 461.499C463.996 462.114 462.385 462.516 460.741 462.696C458.71 462.882 456.663 462.782 454.659 462.396C452.624 461.994 450.564 461.731 448.494 461.606C446.77 461.545 445.053 461.847 443.453 462.492C442.371 462.927 441.407 463.612 440.64 464.492C440.442 464.731 440.266 464.987 440.113 465.258C440.043 465.367 439.994 465.489 439.969 465.617Z" fill="#F5F5F5"/>
<path d="M467.925 474.141C467.636 473.914 467.307 473.743 466.955 473.638C466.025 473.289 465.049 473.079 464.058 473.016C462.588 472.924 461.113 473.009 459.664 473.267C458.036 473.531 456.288 473.986 454.444 474.369C452.738 474.775 450.989 474.972 449.236 474.955C447.812 474.92 446.407 474.62 445.094 474.069C443.901 473.512 442.833 472.718 441.957 471.735C442.086 472.076 442.286 472.386 442.544 472.645C443.214 473.394 444.028 474.001 444.938 474.429C446.281 475.066 447.739 475.424 449.224 475.482C451.024 475.533 452.824 475.348 454.576 474.931C456.431 474.536 458.167 474.069 459.772 473.734C461.18 473.463 462.612 473.343 464.046 473.375C465.366 473.467 466.669 473.725 467.925 474.141Z" fill="#F5F5F5"/>
<path d="M443.07 486.138C444.136 485.672 445.32 485.55 446.458 485.79C447.703 486.093 448.908 486.539 450.05 487.119C452.098 488.091 454.354 488.538 456.618 488.421C458.881 488.304 461.08 487.627 463.016 486.449C463.771 485.992 464.474 485.454 465.111 484.845C465.348 484.626 465.553 484.377 465.722 484.102C464.798 484.828 463.83 485.495 462.825 486.102C460.341 487.457 457.515 488.056 454.695 487.826C451.379 487.634 448.841 485.659 446.542 485.431C445.648 485.254 444.723 485.316 443.86 485.611C443.298 485.85 443.046 486.114 443.07 486.138Z" fill="#F5F5F5"/>
<path d="M445.058 502.731C446.062 502.764 447.061 502.568 447.979 502.156C449.739 501.57 451.918 500.217 454.468 499.211C455.646 498.724 456.905 498.46 458.179 498.433C459.216 498.427 460.24 498.661 461.172 499.115C462.016 499.577 462.754 500.209 463.339 500.971C463.288 500.704 463.173 500.454 463.004 500.241C462.583 499.623 462.021 499.114 461.364 498.756C460.391 498.219 459.302 497.928 458.191 497.906C456.845 497.905 455.511 498.165 454.264 498.672C451.618 499.726 449.475 501.067 447.835 501.773C446.195 502.48 445.058 502.647 445.058 502.731Z" fill="#F5F5F5"/>
<path d="M446.734 510.453C447.431 510.807 448.178 511.053 448.949 511.184C450.773 511.62 452.625 511.932 454.492 512.117C456.358 512.298 458.234 512.35 460.107 512.273C460.886 512.289 461.664 512.197 462.418 511.998C462.418 511.83 458.826 511.998 454.54 511.543C450.254 511.088 446.77 510.286 446.734 510.453Z" fill="#F5F5F5"/>
<path d="M164.599 123.973L61.9121 148.38L97.7414 299.125L200.428 274.719L164.599 123.973Z" fill="#E0E0E0"/>
<path d="M156.605 119.525L53.9185 143.932L89.7478 294.678L192.435 270.271L156.605 119.525Z" fill="#EBEBEB"/>
<path d="M148.359 118.182L45.6722 142.588L80.8177 290.457L183.505 266.05L148.359 118.182Z" fill="#F5F5F5"/>
<path d="M147.08 274.719C147.08 274.719 171.024 258.401 176.903 239.413C174.371 242.253 171.289 244.55 167.844 246.165C164.4 247.78 160.663 248.68 156.861 248.811C156.861 248.811 154.311 269.116 147.08 274.719Z" fill="#EBEBEB"/>
<path d="M147.63 157.57C147.63 157.738 129.444 162.203 106.924 167.555C84.4046 172.907 66.1109 177.133 66.075 176.941C66.0391 176.75 84.2609 172.308 106.781 166.956C129.301 161.605 147.594 157.391 147.63 157.57Z" fill="#E0E0E0"/>
<path d="M150.18 168.345C150.18 168.513 131.994 172.991 109.475 178.33C86.9547 183.67 68.6611 187.908 68.6252 187.717C68.5893 187.525 86.8111 183.083 109.331 177.732C131.851 172.38 150.132 168.118 150.18 168.345Z" fill="#E0E0E0"/>
<path d="M152.73 179.013C152.73 179.18 134.545 183.658 112.025 189.01C89.5048 194.361 71.2111 198.587 71.1752 198.396C71.1393 198.204 89.3492 193.751 111.881 188.399C134.413 183.047 152.683 178.845 152.73 179.013Z" fill="#E0E0E0"/>
<path d="M155.328 189.74C155.328 189.907 137.142 194.385 114.623 199.737C92.1027 205.088 73.809 209.314 73.7731 209.123C73.7372 208.931 91.9471 204.478 114.479 199.126C137.011 193.774 155.233 189.572 155.328 189.74Z" fill="#E0E0E0"/>
<path d="M157.831 200.467C157.831 200.635 139.645 205.112 117.125 210.464C94.6049 215.815 76.3113 220.018 76.3113 219.826C76.3113 219.635 94.4852 215.181 117.017 209.829C139.549 204.478 157.783 200.299 157.831 200.467Z" fill="#E0E0E0"/>
<path d="M160.381 211.194C160.381 211.362 142.195 215.839 119.675 221.191C97.1552 226.543 78.8735 230.769 78.8376 230.577C78.8017 230.386 97.0115 225.932 119.543 220.58C142.075 215.229 160.333 211.026 160.381 211.194Z" fill="#E0E0E0"/>
<path d="M162.931 221.921C162.931 222.089 144.745 226.567 122.225 231.918C99.7051 237.27 81.4234 241.496 81.3875 241.304C81.3516 241.113 99.5614 236.659 122.093 231.308C144.625 225.956 162.883 221.754 162.931 221.921Z" fill="#E0E0E0"/>
<path d="M165.481 232.66C165.481 232.828 147.295 237.294 124.775 242.645C102.255 247.997 83.9736 252.223 83.9377 252.032C83.9018 251.84 102.112 247.386 124.643 242.035C147.175 236.683 165.433 232.493 165.481 232.66Z" fill="#E0E0E0"/>
<path d="M543.542 525.431C543.542 525.598 421.855 525.742 271.771 525.742C121.686 525.742 0 525.598 0 525.431C0 525.263 121.674 525.119 271.771 525.119C421.867 525.119 543.542 525.251 543.542 525.431Z" fill="#263238"/>
<path d="M233.639 483.587L230.85 514.344L221.619 538.037C221.461 538.441 221.388 538.873 221.404 539.306C221.421 539.739 221.526 540.164 221.713 540.555C221.901 540.946 222.167 541.294 222.494 541.577C222.822 541.861 223.205 542.074 223.618 542.204C224.099 542.358 224.611 542.395 225.109 542.309C225.607 542.224 226.078 542.019 226.48 541.713C231.676 537.75 250.712 523.096 250.795 520.833C250.891 518.211 255.896 488.568 255.896 488.568L233.639 483.587Z" fill="#FF725E"/>
<g opacity="0.6">
<path opacity="0.6" d="M223.57 542.216L250.987 518.774L250.831 520.067C250.711 521.194 250.188 522.24 249.359 523.012C247.156 525.083 240.978 530.662 226.528 541.737C226.113 542.055 225.625 542.265 225.109 542.349C224.593 542.432 224.064 542.387 223.57 542.216Z" fill="white"/>
</g>
<g opacity="0.6">
<path opacity="0.6" d="M245.863 508.155C245.461 508.389 245.159 508.76 245.011 509.201C244.864 509.641 244.881 510.121 245.061 510.549C245.277 510.969 245.646 511.289 246.092 511.443C246.538 511.597 247.026 511.572 247.455 511.375C247.888 511.125 248.213 510.724 248.368 510.249C248.523 509.774 248.496 509.258 248.293 508.801C248.021 508.388 247.599 508.097 247.117 507.99C246.634 507.883 246.128 507.968 245.707 508.226" fill="white"/>
</g>
<path d="M232.167 529.609C231.549 528.566 230.736 527.651 229.772 526.915C228.698 526.339 227.524 525.973 226.312 525.838C226.312 525.754 226.707 525.562 227.438 525.538C228.398 525.541 229.337 525.819 230.143 526.34C230.949 526.854 231.59 527.59 231.987 528.46C232.25 529.13 232.25 529.585 232.167 529.609Z" fill="#263238"/>
<path d="M229.557 533.5C229.401 533.62 228.527 532.506 226.995 531.872C226.023 531.575 225.036 531.331 224.037 531.142C224.544 530.902 225.101 530.786 225.661 530.805C226.221 530.824 226.768 530.976 227.258 531.249C228.958 531.944 229.676 533.404 229.557 533.5Z" fill="#263238"/>
<path d="M236.836 524.796C235.643 523.775 234.374 522.847 233.041 522.019C231.606 521.38 230.125 520.851 228.611 520.438C230.255 520.306 231.902 520.645 233.359 521.417C234.816 522.189 236.022 523.362 236.836 524.796Z" fill="#263238"/>
<path d="M238.464 515.541C238.368 515.721 236.752 514.811 234.549 514.488C232.346 514.165 230.55 514.488 230.502 514.284C231.82 513.758 233.255 513.596 234.656 513.818C236.058 514.039 237.373 514.634 238.464 515.541Z" fill="#263238"/>
<path d="M239.518 506.514C238.231 505.928 236.869 505.525 235.471 505.317C234.055 505.315 232.646 505.505 231.281 505.88C231.281 505.808 231.616 505.461 232.37 505.138C233.368 504.729 234.448 504.56 235.523 504.646C236.599 504.731 237.639 505.068 238.56 505.628C239.254 506.048 239.577 506.443 239.518 506.514Z" fill="#263238"/>
<path d="M235.722 503.569C235.666 503.168 235.699 502.759 235.818 502.372C236.039 501.319 236.471 500.321 237.087 499.439C237.481 498.755 238.086 498.217 238.811 497.906C239.06 497.828 239.327 497.829 239.576 497.908C239.824 497.988 240.042 498.142 240.2 498.349C240.484 498.775 240.603 499.29 240.535 499.798C240.344 500.82 239.804 501.744 239.007 502.412C238.21 503.081 237.205 503.451 236.165 503.461C235.132 503.456 234.124 503.142 233.271 502.559C232.418 501.977 231.758 501.153 231.376 500.193C231.281 499.95 231.239 499.69 231.253 499.429C231.268 499.169 231.338 498.915 231.46 498.684C231.601 498.462 231.811 498.293 232.058 498.202C232.304 498.111 232.574 498.104 232.825 498.182C233.562 498.432 234.219 498.874 234.729 499.463C235.491 500.22 236.112 501.108 236.56 502.085C236.748 502.429 236.866 502.808 236.908 503.198C236.238 501.956 235.395 500.815 234.405 499.81C233.939 499.319 233.359 498.949 232.717 498.732C232.579 498.689 232.43 498.692 232.293 498.742C232.157 498.792 232.041 498.885 231.963 499.008C231.897 499.163 231.863 499.33 231.863 499.499C231.863 499.667 231.897 499.834 231.963 499.989C232.317 500.805 232.898 501.502 233.636 501.996C234.375 502.491 235.24 502.763 236.129 502.779C237.007 502.767 237.854 502.459 238.535 501.905C239.215 501.351 239.688 500.583 239.877 499.726C239.938 499.375 239.87 499.013 239.685 498.708C239.601 498.59 239.482 498.501 239.344 498.453C239.207 498.406 239.058 498.403 238.919 498.445C238.307 498.713 237.789 499.16 237.434 499.726C236.644 500.898 236.065 502.198 235.722 503.569Z" fill="#263238"/>
<path d="M353.805 184.783C353.836 184.917 353.836 185.056 353.805 185.19C353.29 187.07 350.058 194.936 348.956 194.9C347.855 194.864 345.269 193.176 345.496 192.05C345.724 190.925 349.854 182.281 349.854 182.281C349.854 182.281 350.596 180.964 353.087 181.551C353.386 181.635 353.733 185.106 353.805 184.783Z" fill="#EB996E"/>
<path d="M349.71 180.09C349.71 180.09 349.71 180.258 349.65 180.485C349.124 182.377 345.903 190.243 344.802 190.195C343.7 190.147 341.114 188.471 341.342 187.357C341.569 186.244 345.7 177.588 345.7 177.588C345.7 177.588 346.442 176.259 348.932 176.846C350.477 177.205 349.71 180.09 349.71 180.09Z" fill="#EB996E"/>
<path d="M346.095 176.834C346.095 176.834 346.095 177.001 346.095 177.229C345.58 179.12 342.347 186.986 341.246 186.938C340.144 186.89 337.558 185.214 337.786 184.101C338.013 182.987 342.096 174.332 342.096 174.332C341.94 174.607 341.737 172.751 345.329 173.589C346.885 173.948 346.095 176.834 346.095 176.834Z" fill="#EB996E"/>
<path d="M341.533 173.697C341.533 173.697 341.533 173.865 341.533 174.092C341.019 175.984 337.786 183.838 336.685 183.802C335.583 183.766 332.997 182.078 333.225 180.964C333.452 179.851 337.582 171.195 337.582 171.195C337.582 171.195 338.325 169.866 340.815 170.452C342.288 170.812 341.533 173.697 341.533 173.697Z" fill="#EB996E"/>
<path d="M346.31 189.728C347.085 188.576 347.716 187.333 348.19 186.028C348.815 184.805 349.277 183.505 349.567 182.161C348.788 183.316 348.157 184.562 347.687 185.873C347.055 187.089 346.592 188.386 346.31 189.728Z" fill="#D1734A"/>
<path d="M341.629 187.92C342.661 186.238 343.531 184.462 344.227 182.616C345.089 180.846 345.794 179.003 346.334 177.109C345.308 178.794 344.438 180.569 343.736 182.413C342.874 184.183 342.169 186.026 341.629 187.92Z" fill="#D1734A"/>
<g opacity="0.78">
<path opacity="0.78" d="M337.044 185.669C338.096 183.973 338.986 182.181 339.702 180.318C340.568 178.549 341.273 176.706 341.809 174.81C340.789 176.495 339.92 178.265 339.211 180.102C338.326 181.891 337.601 183.753 337.044 185.669Z" fill="#D1734A"/>
</g>
<path d="M347.938 200.67C348.13 200.203 351.267 190.889 351.267 190.889L333.308 182.042C332.398 183.239 329.633 196.3 329.633 196.3L330.267 200.754C330.267 200.754 343.892 208.584 344.263 208.656C344.634 208.728 347.938 200.67 347.938 200.67Z" fill="#EB996E"/>
<path d="M333.907 196.648L332.075 189.895C331.278 186.93 331.651 183.771 333.117 181.072L334.242 179.013L349.495 185.957C349.495 185.957 345.963 190.961 342.084 188.255L345.065 194.05L333.907 196.648Z" fill="#EB996E"/>
<path d="M343.748 194.6C343.664 194.6 343.748 193.81 343.533 192.481C343.163 190.652 342.137 189.021 340.647 187.896L339.235 186.854L340.935 187.321L344.862 188.423H344.778C345.632 188.535 346.501 188.402 347.284 188.04C348.066 187.677 348.729 187.1 349.196 186.375C349.266 186.263 349.323 186.143 349.363 186.016L349.591 186.495C345.197 184.711 341.21 183.047 338.48 181.706C337.092 181.024 335.978 180.437 335.236 180.018C334.824 179.831 334.445 179.58 334.11 179.276C335.676 179.836 337.211 180.479 338.708 181.203C341.521 182.401 345.484 184.017 349.89 185.801L350.225 185.932L350.105 186.28C350.051 186.45 349.978 186.615 349.89 186.771C349.367 187.693 348.543 188.407 347.555 188.794C346.659 189.133 345.697 189.268 344.742 189.189H344.658L340.755 187.992L341.042 187.417C342.618 188.659 343.646 190.468 343.904 192.457C344.044 193.173 343.99 193.913 343.748 194.6Z" fill="#D1734A"/>
<path d="M347.412 187.836C347.567 187.836 347.304 188.674 347.543 189.776C347.592 190.076 347.734 190.353 347.949 190.567C348.164 190.782 348.441 190.924 348.741 190.973C349.119 190.948 349.483 190.824 349.798 190.614C350.113 190.404 350.368 190.115 350.537 189.776C351.458 188.159 352.404 186.687 352.931 185.609C353.458 184.532 353.793 183.814 353.901 183.849C354.008 183.885 353.901 184.652 353.434 185.849C352.77 187.351 352.006 188.807 351.147 190.207C350.912 190.667 350.553 191.053 350.112 191.322C349.67 191.59 349.162 191.731 348.645 191.727C348.207 191.648 347.807 191.425 347.51 191.093C347.213 190.761 347.035 190.34 347.005 189.895C346.932 189.373 346.981 188.84 347.148 188.339C347.268 188.004 347.364 187.824 347.412 187.836Z" fill="#D1734A"/>
<path d="M285.216 108.221L279.96 162.096C279.756 164.158 278.752 166.058 277.162 167.388C275.573 168.718 273.525 169.371 271.46 169.207L259.092 168.214C257.025 168.048 255.106 167.077 253.748 165.509C252.391 163.941 251.705 161.903 251.837 159.833C252.232 153.368 252.855 145.466 252.855 145.466C252.855 145.466 241.349 143.682 241.206 132.177C241.134 126.67 241.912 115.416 242.738 105.132C243.177 99.6712 245.658 94.5766 249.685 90.8625C253.711 87.1484 258.99 85.0875 264.468 85.0901H265.234C268.079 85.257 270.862 85.9928 273.417 87.254C275.973 88.5153 278.249 90.2763 280.113 92.4329C281.976 94.5896 283.387 97.0979 284.264 99.8097C285.14 102.521 285.464 105.381 285.216 108.221Z" fill="#EB996E"/>
<path d="M252.831 145.335C258.156 145.446 263.393 143.961 267.868 141.073C267.868 141.073 264.276 149.357 252.843 148.316L252.831 145.335Z" fill="#D1734A"/>
<path d="M245.228 113.668C245.432 113.883 246.677 112.961 248.449 112.973C250.221 112.985 251.514 113.859 251.705 113.644C251.897 113.428 251.586 113.153 251.023 112.746C250.26 112.218 249.353 111.938 248.425 111.944C247.504 111.934 246.605 112.224 245.863 112.77C245.312 113.189 245.121 113.572 245.228 113.668Z" fill="#263238"/>
<path d="M262.552 113.668C262.756 113.883 264.001 112.962 265.773 112.974C267.545 112.986 268.826 113.86 269.029 113.644C269.233 113.429 268.909 113.153 268.347 112.746C267.578 112.221 266.668 111.941 265.737 111.944C264.816 111.937 263.918 112.227 263.175 112.77C262.636 113.189 262.456 113.572 262.552 113.668Z" fill="#263238"/>
<path d="M256.195 123.916C255.263 123.62 254.298 123.443 253.322 123.389C252.867 123.389 252.448 123.258 252.364 122.946C252.324 122.482 252.433 122.016 252.675 121.617C253.094 120.516 253.537 119.379 254.004 118.169C255.86 113.285 257.201 109.25 257.009 109.178C256.817 109.106 255.141 113.021 253.286 117.918L252.005 121.366C251.727 121.913 251.646 122.539 251.777 123.138C251.845 123.297 251.947 123.439 252.075 123.554C252.203 123.67 252.355 123.757 252.519 123.808C252.77 123.872 253.027 123.904 253.286 123.904C254.251 124.025 255.228 124.029 256.195 123.916Z" fill="#263238"/>
<path d="M261.403 125.137C261.116 125.137 261.104 127.041 259.463 128.406C257.823 129.771 255.776 129.603 255.764 129.819C255.752 130.034 256.219 130.19 257.081 130.214C258.206 130.234 259.302 129.852 260.17 129.136C261.007 128.458 261.545 127.478 261.666 126.406C261.738 125.604 261.535 125.125 261.403 125.137Z" fill="#263238"/>
<path d="M262.157 103.875C262.325 104.353 264.097 104.126 266.168 104.377C268.239 104.629 269.915 105.191 270.191 104.76C270.322 104.557 270.023 104.102 269.352 103.635C268.449 103.066 267.427 102.709 266.365 102.593C265.303 102.477 264.228 102.604 263.223 102.965C262.468 103.264 262.085 103.695 262.157 103.875Z" fill="#263238"/>
<path d="M245.887 105.359C246.198 105.754 247.407 105.359 248.88 105.359C250.352 105.359 251.586 105.623 251.861 105.204C251.993 105 251.861 104.605 251.25 104.222C250.526 103.772 249.686 103.546 248.834 103.572C247.982 103.597 247.157 103.873 246.461 104.366C245.911 104.749 245.743 105.156 245.887 105.359Z" fill="#263238"/>
<path d="M272.717 95.6016H272.789C274.621 97.0477 275.826 99.1445 276.153 101.456C276.146 101.532 276.146 101.608 276.153 101.683C276.608 104.964 276.524 108.304 277.003 111.585C277.312 114.911 278.733 118.037 281.037 120.456C282.031 121.378 283.791 122.024 284.629 120.935C284.897 120.477 285.038 119.957 285.036 119.426C285.647 111.501 287.814 104.473 287.802 96.1882C287.802 95.0789 287.539 93.9853 287.036 92.9969C286.532 92.0085 285.802 91.1534 284.904 90.5014C283.168 89.3042 281.049 87.9752 279.122 88.8851C277.194 89.795 274.692 93.4106 273.196 94.8713" fill="#263238"/>
<path d="M281.337 113.417C281.528 113.333 289.238 111.022 288.987 118.948C288.736 126.873 280.894 124.934 280.882 124.718C280.87 124.503 281.337 113.417 281.337 113.417Z" fill="#EB996E"/>
<path d="M283.432 121.809C283.432 121.809 283.564 121.905 283.791 122.025C284.122 122.157 284.49 122.157 284.821 122.025C285.338 121.72 285.765 121.284 286.057 120.76C286.35 120.236 286.497 119.643 286.485 119.044C286.525 118.369 286.415 117.694 286.162 117.068C286.095 116.82 285.97 116.592 285.797 116.402C285.624 116.213 285.409 116.068 285.168 115.979C285.011 115.932 284.843 115.941 284.693 116.004C284.542 116.068 284.418 116.181 284.342 116.326C284.234 116.541 284.27 116.709 284.234 116.721C284.198 116.733 284.066 116.577 284.138 116.254C284.19 116.063 284.304 115.895 284.461 115.775C284.686 115.623 284.959 115.559 285.228 115.595C285.551 115.669 285.849 115.824 286.094 116.047C286.34 116.269 286.524 116.551 286.629 116.865C286.935 117.556 287.071 118.312 287.024 119.067C287.037 119.769 286.845 120.46 286.47 121.053C286.096 121.647 285.556 122.118 284.916 122.408C284.71 122.452 284.497 122.452 284.291 122.409C284.085 122.366 283.89 122.279 283.719 122.156C283.432 122.001 283.348 121.821 283.432 121.809Z" fill="#D1734A"/>
<path d="M279.409 90.1424C281.349 87.0057 276.033 82.4801 272.154 81.259C268.275 80.0378 263.163 81.9294 259.296 83.2104C256.901 84.0126 254.435 85.15 251.861 85.0422C250.147 84.8692 248.468 84.4414 246.881 83.7731C245.286 83.1021 243.57 82.7639 241.84 82.7794C240.978 82.797 240.137 83.0508 239.408 83.5131C238.68 83.9753 238.093 84.6285 237.71 85.4014C237.545 85.7928 237.466 86.2152 237.48 86.6397C237.493 87.0642 237.597 87.481 237.786 87.8615C237.974 88.2421 238.243 88.5776 238.572 88.8451C238.902 89.1127 239.286 89.3061 239.697 89.4121C239.149 89.1159 238.538 88.9564 237.915 88.9474C237.292 88.9383 236.676 89.0799 236.119 89.3601C235.563 89.6403 235.082 90.0507 234.719 90.5566C234.355 91.0624 234.119 91.6486 234.03 92.2653C233.942 92.882 234.004 93.511 234.211 94.0986C234.418 94.6862 234.764 95.2152 235.219 95.6404C235.674 96.0656 236.226 96.3745 236.826 96.5408C237.427 96.707 238.058 96.7258 238.668 96.5955C237.542 95.7454 235.83 97.1462 235.974 98.5469C236.123 99.234 236.449 99.8703 236.919 100.393C237.39 100.916 237.988 101.307 238.656 101.528C241.936 102.965 245.767 102.51 249.155 101.36C252.543 100.211 255.704 98.4392 259.068 97.218C262.432 95.9968 268.071 93.782 271.448 94.9792C273.938 95.8532 275.674 98.8462 277.075 98.1878C277.737 97.8354 278.308 97.3322 278.741 96.7187C279.173 96.1052 279.456 95.3986 279.565 94.6559C279.752 93.1607 279.7 91.645 279.409 90.1663" fill="#263238"/>
<path d="M238.739 89.1965C238.811 89.1965 239.146 89.7832 239.997 90.6931C241.202 91.9734 242.702 92.9393 244.366 93.5066C246.807 94.3948 249.499 94.2873 251.861 93.2073C254.543 92.01 256.83 89.6156 259.463 87.3528C261.911 85.0675 264.998 83.5845 268.311 83.1027C269.68 82.9378 271.069 83.0872 272.372 83.5394C273.674 83.9917 274.857 84.7349 275.83 85.7126C276.453 86.3974 276.933 87.2009 277.239 88.0751C277.546 88.9494 277.673 89.8764 277.613 90.8008C277.563 91.2921 277.451 91.7749 277.278 92.2375C277.135 92.5488 277.039 92.7044 277.015 92.6924C277.167 92.0631 277.267 91.4225 277.314 90.7769C277.317 89.0262 276.639 87.3431 275.423 86.0837C274.491 85.2073 273.376 84.5494 272.158 84.158C270.94 83.7665 269.651 83.6514 268.383 83.821C265.239 84.3288 262.32 85.7676 260.002 87.9514C257.416 90.1543 255.058 92.6206 252.196 93.8657C250.086 94.77 247.741 94.9695 245.509 94.4346C243.276 93.8997 241.276 92.6589 239.805 90.8966C239.495 90.5222 239.219 90.1216 238.979 89.6994C238.787 89.3282 238.715 89.2085 238.739 89.1965Z" fill="#455A64"/>
<path d="M283.336 113.081C283.336 113.081 283.001 112.866 282.702 112.231C282.308 111.337 282.171 110.35 282.307 109.382C282.486 106.856 284.701 104.126 285.012 100.63C285.208 99.0132 284.903 97.3751 284.138 95.937C283.467 94.7982 282.441 93.9109 281.217 93.4109C280.385 93.0642 279.477 92.9404 278.583 93.0517C277.961 93.1475 277.613 93.3031 277.589 93.2432C277.566 93.1834 277.865 92.9559 278.523 92.7524C279.478 92.5141 280.482 92.5641 281.409 92.896C282.797 93.3727 283.978 94.3163 284.749 95.5659C285.638 97.1218 285.999 98.9237 285.778 100.702C285.58 102.432 285.069 104.111 284.27 105.658C283.619 106.853 283.143 108.135 282.857 109.466C282.645 110.692 282.812 111.953 283.336 113.081Z" fill="#455A64"/>
<path d="M215.549 56.7157C215.13 56.3685 213.645 43.5462 213.645 43.5462L224.42 37.2249L241.182 41.0919L237.817 50.4782L220.601 59.5053L215.549 56.7157Z" fill="#EB996E"/>
<path d="M182.218 66.8562C182.218 66.8562 209.3 52.7768 226.671 50.9331C245.959 48.8738 265.402 60.3553 265.402 60.3553L261.559 9.48502C261.559 9.48502 243.421 -4.05563 220.35 1.70304C200.787 6.58773 181.213 16.0698 181.213 16.0698L182.218 66.8562Z" fill="#FAFAFA"/>
<path d="M182.218 66.8563V65.9823L182.146 63.3603C182.087 60.9659 182.003 57.6136 181.883 53.2438C181.679 44.3962 181.38 31.6937 181.009 16.1297V15.974L181.153 15.9022C186.337 13.5078 191.988 11.0175 198.07 8.71884C204.456 6.19091 210.97 3.99702 217.584 2.14606L220.194 1.45167L222.888 0.900942C224.707 0.53115 226.546 0.27128 228.395 0.122744C232.196 -0.138733 236.014 0.0178441 239.781 0.589662C243.653 1.21081 247.45 2.23811 251.107 3.65457C254.877 5.08899 258.465 6.96153 261.798 9.23365L261.906 9.30548V9.46113C261.906 9.95199 261.99 10.4907 262.025 11.0175C263.33 28.4611 264.588 45.1385 265.725 60.3314V60.8701L265.246 60.6067C259.843 57.6318 254.13 55.259 248.209 53.5311C242.831 51.942 237.26 51.0961 231.652 51.0169C226.676 51.048 221.729 51.7651 216.95 53.148C212.472 54.3452 208.426 55.7579 204.786 57.1108C197.531 59.8525 191.916 62.3786 188.085 64.1505L183.727 66.2097L182.613 66.7485L182.218 66.9161L182.589 66.7006L183.679 66.1259C184.661 65.6231 186.073 64.9287 188.013 63.9709C191.808 62.1511 197.411 59.5651 204.666 56.7876C208.258 55.4107 212.352 53.986 216.842 52.7529C221.655 51.3262 226.644 50.5806 231.664 50.538C237.342 50.6091 242.983 51.4673 248.425 53.0881C254.399 54.8002 260.162 57.1776 265.605 60.1757L265.174 60.4511C263.977 45.2582 262.78 28.5809 261.427 11.1372L261.307 9.56888L261.439 9.79635C258.148 7.56425 254.609 5.72402 250.891 4.31305C247.273 2.90938 243.517 1.89012 239.685 1.27208C235.941 0.67739 232.143 0.496716 228.359 0.733331C226.535 0.880651 224.72 1.13248 222.924 1.48758L220.266 2.03831L217.668 2.72073C211.079 4.52098 204.586 6.65479 198.213 9.11393C192.143 11.4366 186.48 13.9028 181.32 16.2973L181.452 16.0818C181.703 31.6458 181.907 44.2646 182.051 53.0762C182.11 57.47 182.158 60.906 182.194 63.2646V65.9464C182.23 66.5809 182.218 66.8563 182.218 66.8563Z" fill="#263238"/>
<path d="M251.178 46.3358C250.999 46.3358 250.281 37.7517 249.574 27.1802C248.868 16.6086 248.425 7.91675 248.592 7.91675C248.76 7.91675 249.478 16.4889 250.197 27.0724C250.915 37.6559 251.346 46.3238 251.178 46.3358Z" fill="#E0E0E0"/>
<path d="M244.378 43.6661C244.211 43.6661 243.492 35.0819 242.786 24.5104C242.08 13.9389 241.589 5.35475 241.804 5.28292C242.02 5.21108 242.69 13.8551 243.396 24.4386C244.103 35.0221 244.558 43.6541 244.378 43.6661Z" fill="#E0E0E0"/>
<path d="M237.829 42.732C237.662 42.732 236.943 34.1479 236.225 23.5764C235.507 13.0048 235.028 4.34888 235.255 4.34888C235.483 4.34888 236.141 12.921 236.848 23.5045C237.554 34.088 237.997 42.72 237.829 42.732Z" fill="#E0E0E0"/>
<path d="M224.385 44.6119C224.217 44.6119 223.499 36.0277 222.78 25.4562C222.062 14.8847 221.583 6.30055 221.811 6.22872C222.038 6.15688 222.697 14.8009 223.403 25.3844C224.109 35.9679 224.552 44.5999 224.385 44.6119Z" fill="#E0E0E0"/>
<path d="M218.123 46.3358C217.955 46.3358 217.237 37.7637 216.531 27.1802C215.824 16.5967 215.381 7.91675 215.549 7.91675C215.717 7.91675 216.435 16.5009 217.153 27.0724C217.872 37.6439 218.303 46.3238 218.123 46.3358Z" fill="#E0E0E0"/>
<path d="M211.466 48.0357C211.287 48.0357 210.58 39.4516 209.862 28.8801C209.144 18.3085 208.665 9.65259 208.88 9.65259C209.096 9.65259 209.778 18.2247 210.485 28.8082C211.191 39.3917 211.598 48.0238 211.466 48.0357Z" fill="#E0E0E0"/>
<path d="M198.788 53.2677C198.608 53.2677 197.89 44.6955 197.184 34.112C196.477 23.5285 195.986 14.8965 196.202 14.8845C196.417 14.8726 197.088 23.4687 197.806 34.0402C198.524 44.6117 198.955 53.2557 198.788 53.2677Z" fill="#E0E0E0"/>
<path d="M204.846 50.4303C204.666 50.4303 203.96 41.8581 203.242 31.2746C202.523 20.6911 202.044 12.0471 202.26 12.0352C202.475 12.0232 203.158 20.6193 203.864 31.1908C204.57 41.7623 205.013 50.4303 204.846 50.4303Z" fill="#E0E0E0"/>
<path d="M191.712 55.5425C191.545 55.5425 190.826 46.9584 190.12 36.3869C189.414 25.8153 188.923 17.2312 189.138 17.1594C189.354 17.0875 190.024 25.7315 190.743 36.315C191.461 46.8985 191.892 55.5305 191.712 55.5425Z" fill="#E0E0E0"/>
<path d="M230.922 42.9237C230.754 42.9237 230.036 34.3396 229.317 23.768C228.599 13.1965 228.12 4.55251 228.347 4.54054C228.575 4.52857 229.233 13.1127 229.94 23.6962C230.646 34.2797 231.089 42.9117 230.922 42.9237Z" fill="#E0E0E0"/>
<path d="M239.937 43.3308C241.342 42.612 242.83 42.0653 244.366 41.7025C247.168 40.8286 251.083 39.6792 255.512 38.458L255.333 39.5715L253.585 38.47C244.989 33.1424 236.979 30.9634 237.099 30.5923C237.099 30.4366 239.182 30.7958 242.379 31.7895C246.528 33.1908 250.504 35.0585 254.231 37.3566C254.854 37.7277 255.429 38.1228 256.015 38.494C256.113 38.5606 256.19 38.6537 256.237 38.7624C256.284 38.8711 256.299 38.9909 256.28 39.1078C256.261 39.2247 256.209 39.3337 256.13 39.4222C256.052 39.5107 255.95 39.5749 255.836 39.6074C251.394 40.8046 247.455 41.7863 244.582 42.4568C243.076 42.9407 241.515 43.2343 239.937 43.3308Z" fill="#FF725E"/>
<path d="M246.545 41.9659C246.21 41.9659 245.647 39.1644 245.348 35.6446C245.049 32.1247 244.989 29.2274 245.348 29.1915C245.707 29.1556 246.246 31.981 246.545 35.5129C246.845 39.0447 246.892 41.93 246.545 41.9659Z" fill="#FF725E"/>
<path d="M256.015 39.703C256.015 39.703 256.159 39.9185 256.291 40.3974C256.454 41.1135 256.409 41.8615 256.159 42.5524C255.742 43.6444 255.009 44.5868 254.052 45.2581C253.484 45.692 252.87 46.0614 252.22 46.3596C251.485 46.6859 250.713 46.9231 249.921 47.0659C248.108 47.4105 246.243 47.3615 244.45 46.9223C243.453 46.6892 242.476 46.3769 241.529 45.9884C239.91 45.3992 238.423 44.4963 237.153 43.3315C235.884 42.1666 234.856 40.7627 234.13 39.2002C232.867 36.9494 232.442 34.3234 232.933 31.7893C233.244 30.4449 234.025 29.2559 235.136 28.4371C236.206 27.7042 237.439 27.2439 238.727 27.0962C241.836 26.6906 244.997 27.1061 247.896 28.3012C250.794 29.4963 253.33 31.4295 255.249 33.9084C256.844 36.0205 257.796 38.5479 257.991 41.1876C258.13 42.1345 258.105 43.0982 257.919 44.037C257.734 43.115 257.598 42.1839 257.512 41.2474C257.15 38.7612 256.129 36.4172 254.555 34.4591C252.199 31.5791 248.973 29.5414 245.36 28.6526C243.257 28.1169 241.069 27.9949 238.919 28.2934C237.826 28.4488 236.784 28.8589 235.878 29.4906C235.003 30.1355 234.39 31.0753 234.154 32.1365C233.74 34.3849 234.13 36.7073 235.255 38.6973C236.185 40.6453 237.578 42.3351 239.314 43.6179C242.37 45.71 246.071 46.6438 249.754 46.2518C251.147 46.0589 252.475 45.5422 253.633 44.7433C254.522 44.1776 255.239 43.3783 255.704 42.4327C255.964 41.8165 256.079 41.1488 256.039 40.4812C255.978 40.2261 255.97 39.9613 256.015 39.703Z" fill="#FF725E"/>
<path d="M228.826 61.5646L234.226 57.1947C236.587 55.2887 238.118 52.5428 238.5 49.5325L238.799 47.2338L222.577 43.9534C222.577 43.9534 221.056 48.862 227.162 50.0832C221.751 52.4776 219.727 57.2665 218.243 62.6421L228.826 61.5646Z" fill="#EB996E"/>
<path d="M222.134 54.2255C222.218 54.2255 222.565 53.555 223.546 52.6571C224.894 51.4003 226.66 50.6879 228.503 50.6577H230.239L228.611 50.0472L224.828 48.6225H224.899C224.142 48.2225 223.514 47.6146 223.09 46.8702C222.666 46.1258 222.463 45.2759 222.505 44.4202C222.517 44.2906 222.542 44.1624 222.577 44.0371L222.122 44.2885C226.671 45.4139 230.79 46.3597 233.807 46.8745C235.315 47.1379 236.536 47.3175 237.398 47.4013C237.836 47.4884 238.283 47.5126 238.727 47.4731C237.153 47.0096 235.554 46.6339 233.938 46.3477C230.969 45.7012 226.875 44.6716 222.325 43.5342L221.978 43.4504L221.87 43.7857C221.817 43.9614 221.781 44.1418 221.763 44.3244C221.639 45.3611 221.885 46.4081 222.457 47.2816C222.975 48.077 223.667 48.7443 224.48 49.2331L228.288 50.55L228.395 49.9274C226.412 50.0104 224.541 50.8706 223.187 52.3219C222.673 52.8512 222.309 53.5084 222.134 54.2255Z" fill="#D1734A"/>
<path d="M260.421 494.961L283.707 310.588L279.242 282.645H232.466L226.887 491.597C226.864 492.397 227.125 493.179 227.625 493.804C228.125 494.429 228.831 494.856 229.616 495.009L255.189 498.948C255.796 499.04 256.415 499.01 257.01 498.858C257.605 498.706 258.163 498.436 258.651 498.064C259.139 497.692 259.548 497.226 259.852 496.693C260.156 496.16 260.349 495.571 260.421 494.961Z" fill="#263238"/>
<path d="M283.037 316.801L325.395 358.704L264.456 373.514L268.79 404.199L351.267 392.981C354.756 392.505 358.113 391.325 361.132 389.512C364.151 387.698 366.77 385.29 368.83 382.434C371.945 378.109 373.653 372.931 373.724 367.602C373.794 362.274 372.224 357.052 369.225 352.646L304.982 258.365L276.249 267.715L283.037 316.801Z" fill="#263238"/>
<path d="M280.702 306.098C281.389 307.793 281.883 309.561 282.175 311.366C282.666 313.127 282.955 314.939 283.037 316.766C282.35 315.071 281.856 313.304 281.564 311.498C281.073 309.737 280.783 307.925 280.702 306.098Z" fill="#455A64"/>
<path d="M274.536 377.369C274.536 377.369 274.872 377.238 275.542 377.034L278.499 376.112L289.873 372.652L331.225 360.213L331.117 360.608L280.271 306.481L280.81 306.302C279.792 314.814 278.751 323.686 277.673 332.749C272.429 376.663 267.509 416.399 263.689 445.132C261.798 459.499 260.098 471.1 258.901 479.11C258.218 483.109 257.775 486.221 257.308 488.304L256.805 490.699C256.686 491.226 256.614 491.501 256.614 491.501C256.644 491.224 256.688 490.948 256.746 490.675C256.841 490.124 256.997 489.334 257.189 488.281C257.608 486.197 258.015 483.073 258.661 479.074C259.858 471.052 261.403 459.439 263.247 445.073C266.946 416.339 271.795 376.591 277.039 332.677C278.116 323.614 279.17 314.718 280.187 306.23L280.259 305.572L280.714 306.05L331.453 360.285L331.716 360.572L331.345 360.68L289.933 372.916L278.535 376.244L275.542 377.106L274.536 377.369Z" fill="#455A64"/>
<path d="M260.828 491.489C260.649 491.489 265.485 452.328 271.603 404.092C277.721 355.855 282.845 316.694 283.013 316.766C283.18 316.838 278.356 355.903 272.238 404.163C266.12 452.424 260.996 491.501 260.828 491.489Z" fill="#455A64"/>
<path d="M276.165 286.583C276.601 287.496 276.93 288.457 277.146 289.445C277.661 291.229 278.344 293.731 278.918 296.508C279.493 299.286 279.972 301.824 280.247 303.692C280.458 304.679 280.558 305.687 280.547 306.697C280.202 305.751 279.957 304.772 279.816 303.776C279.385 301.728 278.87 299.322 278.308 296.664L276.715 289.577C276.434 288.599 276.249 287.597 276.165 286.583Z" fill="#455A64"/>
<path d="M278.882 282.968C278.882 282.968 279.481 282.393 280.606 282.788C280.935 282.906 281.227 283.109 281.452 283.376C281.677 283.643 281.827 283.965 281.887 284.309C281.969 284.735 281.921 285.176 281.75 285.574C281.58 285.973 281.294 286.312 280.93 286.548C280.553 286.754 280.123 286.841 279.695 286.798C279.268 286.755 278.864 286.585 278.535 286.308C278.264 286.079 278.068 285.775 277.97 285.434C277.872 285.093 277.877 284.731 277.984 284.393C278.099 283.951 278.383 283.573 278.775 283.339C279.05 283.183 279.23 283.183 279.242 283.219C279.254 283.255 278.595 283.555 278.404 284.5C278.35 284.751 278.368 285.012 278.455 285.253C278.541 285.494 278.694 285.706 278.894 285.865C279.138 286.06 279.434 286.178 279.745 286.206C280.056 286.233 280.368 286.169 280.642 286.021C280.902 285.843 281.107 285.597 281.234 285.309C281.36 285.021 281.404 284.704 281.361 284.393C281.322 284.134 281.219 283.89 281.062 283.681C280.906 283.472 280.7 283.305 280.463 283.195C279.961 282.997 279.42 282.919 278.882 282.968Z" fill="#455A64"/>
<path d="M337.858 365.888C337.738 366.032 335.344 363.841 331.872 361.865C328.4 359.89 325.371 358.872 325.419 358.693C330.201 359.726 334.537 362.239 337.81 365.876L337.858 365.888Z" fill="#455A64"/>
<path d="M231.795 282.082L227.677 208.8C227.677 208.8 221.535 182.401 216.231 171.793L244.235 151.273L251.49 154.757L265.857 167.819L280.391 159.33C280.391 159.33 297.799 166.657 302.384 169.411C306.969 172.165 307.879 179.492 307.879 179.492C307.879 179.492 292.782 206.094 292.315 216.534C291.848 226.974 307.412 253.648 307.412 253.648C307.412 253.648 315.925 256.174 316.404 263.022C316.823 268.949 314.069 271.068 314.069 271.068C314.069 271.068 312.872 264.627 304.216 267.38C295.56 270.134 277.446 286.165 264.456 286.62C251.466 287.075 231.795 282.082 231.795 282.082Z" fill="#FF725E"/>
<path d="M307.113 176.367L318.152 221.622L330.699 191.691L348.489 202.466C348.489 202.466 331.728 262.1 315.111 256.234C315.111 256.234 304.767 251.002 303.498 247.291C302.228 243.579 283.049 216.534 283.049 216.534L307.113 176.367Z" fill="#FF725E"/>
<path d="M307.377 253.648C307.377 253.648 307.221 253.48 306.993 253.145L305.988 251.672C305.557 251.026 305.018 250.236 304.479 249.278C303.94 248.32 303.282 247.255 302.647 245.998C302.013 244.741 301.295 243.412 300.66 241.903C300.026 240.395 299.343 238.778 298.697 237.054C297.365 233.283 296.336 229.412 295.62 225.477C294.96 221.519 294.603 217.517 294.554 213.505C294.554 211.661 294.554 209.913 294.686 208.273C294.818 206.633 294.937 205.124 295.069 203.735C295.392 200.97 295.739 198.743 296.075 197.223C296.218 196.528 296.338 195.942 296.446 195.475C296.471 195.268 296.527 195.066 296.613 194.876C296.641 195.083 296.641 195.292 296.613 195.499C296.542 195.977 296.458 196.564 296.362 197.27C296.111 198.803 295.823 201.03 295.56 203.783C295.452 205.16 295.285 206.669 295.261 208.297C295.237 209.925 295.165 211.661 295.177 213.493C295.262 217.461 295.634 221.419 296.29 225.333C296.992 229.237 297.997 233.079 299.295 236.827C299.918 238.539 300.492 240.179 301.187 241.616C301.881 243.052 302.48 244.465 303.078 245.722C303.677 246.979 304.276 248.045 304.826 249.015C305.377 249.984 305.844 250.798 306.239 251.469L307.137 253.013C307.241 253.215 307.321 253.428 307.377 253.648Z" fill="#263238"/>
<path d="M211.431 53.0642C211.431 53.0642 183.416 100.139 181.5 107.083C179.489 114.267 218.387 175.792 218.387 175.792C218.387 175.792 219.141 177.768 219.153 177.756L246.952 155.547L214.184 109.178L231.796 62.8695L211.431 53.0642Z" fill="#FF725E"/>
<path d="M215.322 111.058C215.226 111.13 214.639 110.292 213.406 109.238C211.792 107.877 209.889 106.902 207.841 106.39C205.792 105.877 203.654 105.84 201.589 106.281C200.009 106.628 199.087 107.095 199.039 106.987C199.742 106.42 200.559 106.012 201.434 105.79C202.38 105.515 203.358 105.363 204.343 105.335C205.552 105.309 206.76 105.442 207.935 105.73C209.103 106.037 210.229 106.488 211.287 107.071C212.154 107.563 212.958 108.158 213.681 108.843C214.384 109.453 214.943 110.209 215.322 111.058Z" fill="#263238"/>
<path d="M228.048 179.599C227.928 179.599 227.988 177.959 227.545 175.385C227.274 173.873 226.874 172.387 226.348 170.943C225.1 167.39 223.136 164.13 220.577 161.365C219.534 160.249 218.401 159.22 217.189 158.288C215.094 156.708 213.598 155.99 213.681 155.894C214.055 155.994 214.413 156.143 214.747 156.337C215.159 156.524 215.559 156.736 215.944 156.972C216.463 157.268 216.967 157.592 217.453 157.941C218.744 158.838 219.947 159.856 221.044 160.982C222.358 162.376 223.525 163.9 224.528 165.532C225.505 167.175 226.308 168.917 226.923 170.728C227.416 172.208 227.769 173.731 227.976 175.277C228.058 175.869 228.11 176.464 228.132 177.061C228.167 177.511 228.167 177.964 228.132 178.414C228.168 178.811 228.14 179.211 228.048 179.599Z" fill="#263238"/>
<path d="M304.12 255.013C304.12 255.085 303.246 255.013 301.726 255.108C299.554 255.325 297.43 255.879 295.428 256.749C292.468 258.06 289.681 259.733 287.131 261.729C284.21 263.932 281.145 266.614 277.661 269.032C274.397 271.421 270.657 273.079 266.695 273.893C263.454 274.465 260.142 274.502 256.889 274.001C254.705 273.682 252.554 273.169 250.46 272.468C249.718 272.217 249.155 272.001 248.772 271.846C248.576 271.777 248.388 271.689 248.209 271.582C248.995 271.756 249.77 271.972 250.532 272.229C252.63 272.837 254.771 273.286 256.937 273.57C260.123 273.992 263.356 273.907 266.515 273.318C270.407 272.508 274.081 270.875 277.29 268.529C280.762 266.135 283.803 263.465 286.772 261.274C289.373 259.271 292.222 257.613 295.249 256.342C297.3 255.488 299.483 254.99 301.702 254.869C302.3 254.833 302.899 254.833 303.497 254.869C303.71 254.892 303.919 254.94 304.12 255.013Z" fill="#263238"/>
<path d="M317.026 242.394C316.652 241.429 316.407 240.418 316.296 239.389C315.911 236.919 315.787 234.415 315.925 231.918C316.068 229.421 316.469 226.946 317.122 224.531C317.34 223.519 317.695 222.54 318.175 221.622C318.031 222.64 317.823 223.647 317.553 224.639C317.043 227.049 316.719 229.495 316.583 231.954C316.452 234.414 316.516 236.88 316.775 239.329C316.929 240.344 317.013 241.368 317.026 242.394Z" fill="#263238"/>
<g opacity="0.3">
<path opacity="0.3" d="M249.383 271.307C249.478 268.314 253.046 266.602 256.039 266.781C259.032 266.961 261.87 268.314 264.863 268.422C269.939 268.613 274.441 265.285 278.32 262.052C282.199 258.82 286.509 255.336 291.585 255.132C292.22 255.132 293.022 255.24 293.201 255.863C293.381 256.485 292.89 256.952 292.459 257.335C286.209 262.914 279.816 268.601 272.106 271.87C264.396 275.138 254.998 275.653 247.994 271.067" fill="black"/>
</g>
<g opacity="0.3">
<path opacity="0.3" d="M296.051 198.695C295.207 213.348 299.971 227.773 309.376 239.042C310.944 240.897 312.68 242.729 313.446 245.028C314.213 247.326 313.698 250.296 311.567 251.469C310.638 251.891 309.605 252.03 308.598 251.868C307.591 251.706 306.654 251.251 305.904 250.559C304.423 249.156 303.27 247.443 302.528 245.543C295.464 230.433 291.968 212.99 296.542 196.947" fill="black"/>
</g>
<path d="M157.962 440.619C159.16 436.596 161.614 432.717 165.457 431.041C169.3 429.365 174.077 430.299 178.172 431.783C182.266 433.268 186.277 435.267 190.623 435.531C194.969 435.794 199.865 433.735 201.17 429.545C202.368 425.63 200.033 421.475 197.088 418.638C193.975 415.64 190.158 413.475 185.989 412.34C181.819 411.206 177.431 411.14 173.229 412.148C169.027 413.156 165.146 415.205 161.945 418.107C158.743 421.01 156.324 424.671 154.909 428.754" fill="#ACD900"/>
<g opacity="0.5">
<path opacity="0.5" d="M157.962 440.619C159.16 436.596 161.614 432.717 165.457 431.041C169.3 429.365 174.077 430.299 178.172 431.783C182.266 433.268 186.277 435.267 190.623 435.531C194.969 435.794 199.865 433.735 201.17 429.545C202.368 425.63 200.033 421.475 197.088 418.638C193.975 415.64 190.158 413.475 185.989 412.34C181.819 411.206 177.431 411.14 173.229 412.148C169.027 413.156 165.146 415.205 161.945 418.107C158.743 421.01 156.324 424.671 154.909 428.754" fill="black"/>
</g>
<path d="M123.554 458.075C117.173 452.029 117.496 441.481 120.669 433.292C123.841 425.103 130.797 418.806 138.543 414.651C146.11 410.68 154.477 408.474 163.018 408.198C171.558 407.922 180.05 409.584 187.857 413.059C184.034 413.222 180.31 414.321 177.01 416.258C173.71 418.195 170.935 420.911 168.929 424.169C165.445 429.976 164.667 437.015 161.746 443.133C158.494 450.032 152.725 455.423 145.622 458.202C138.52 460.98 130.624 460.935 123.554 458.075Z" fill="#ACD900"/>
<path d="M120.489 421.691C113.437 413.37 112.492 399.997 113.533 389.126C114.575 378.255 117.125 367.325 115.377 356.55C114.359 350.156 111.881 344.063 111.043 337.645C110.205 331.228 111.39 323.985 116.359 319.843C122.069 315.054 131.061 316.251 137.011 320.681C142.961 325.11 146.385 332.162 148.899 339.154C154.43 354.526 156.466 371.563 151.916 387.247C147.367 402.93 136.723 416.962 121.1 421.691" fill="#ACD900"/>
<path d="M117.101 490.029C117.075 489.71 117.075 489.39 117.101 489.071C117.101 488.448 117.101 487.514 117.101 486.317C117.197 483.923 117.424 480.475 117.963 476.237C118.585 471.265 119.488 466.332 120.669 461.463C122.136 455.483 124.403 449.728 127.409 444.354C130.426 438.989 134.129 434.038 138.424 429.628C141.921 426.031 145.794 422.82 149.977 420.051C151.737 418.853 153.437 417.908 154.909 417.046C156.382 416.184 157.723 415.609 158.8 415.094L161.339 414.029C161.628 413.891 161.928 413.779 162.236 413.693C161.963 413.86 161.679 414.008 161.386 414.136L158.896 415.334C157.843 415.884 156.502 416.531 155.065 417.369C153.628 418.207 151.94 419.201 150.204 420.434C141.006 426.697 133.38 435.002 127.924 444.702C121.435 456.051 119.651 467.988 118.346 476.344C117.759 480.571 117.46 484.007 117.304 486.389C117.233 487.586 117.185 488.46 117.149 489.131C117.155 489.431 117.139 489.731 117.101 490.029Z" fill="#263238"/>
<path d="M56.2459 388.839C43.1841 396.717 43.232 403.888 45.4708 410.652C47.7097 417.417 55.6593 422.122 62.3039 419.584C66.0512 418.147 68.7809 414.891 71.1035 411.61C73.4261 408.33 75.6051 404.822 78.8615 402.463C82.118 400.105 86.8351 399.207 90.1035 401.541" fill="#ACD900"/>
<g opacity="0.5">
<path opacity="0.5" d="M56.2459 388.839C43.1841 396.717 43.232 403.888 45.4708 410.652C47.7097 417.417 55.6593 422.122 62.3039 419.584C66.0512 418.147 68.7809 414.891 71.1035 411.61C73.4261 408.33 75.6051 404.822 78.8615 402.463C82.118 400.105 86.8351 399.207 90.1035 401.541" fill="black"/>
</g>
<path d="M46.4644 397.471C49.8765 392.754 58.317 391.389 63.6327 393.747C68.9483 396.106 72.8633 400.763 76.3113 405.396C79.7593 410.03 83.1954 414.974 88.0322 418.219C92.869 421.463 99.6213 422.637 104.446 419.416C105.981 418.27 107.267 416.824 108.224 415.165C109.181 413.506 109.79 411.669 110.013 409.766C110.44 405.956 110.181 402.1 109.247 398.381C108.05 392.909 106.218 387.187 101.836 383.715C96.9515 379.836 90.1752 379.656 83.9496 379.86C76.7662 380.087 69.5829 380.626 62.8305 383.104C56.0781 385.582 49.2659 390.934 46.4165 397.471" fill="#ACD900"/>
<path d="M106.242 479.625C106.227 479.53 106.227 479.433 106.242 479.337C106.242 479.11 106.242 478.835 106.242 478.499C106.242 477.709 106.242 476.62 106.134 475.255C106.051 472.394 105.931 468.335 105.787 463.342C105.643 458.35 105.428 452.316 105.057 445.683C104.686 439.051 104.195 431.736 103.189 424.133C102.762 420.437 102.037 416.782 101.022 413.203C99.003 406.871 95.9089 400.933 91.8754 395.651C90.1939 393.497 88.3487 391.476 86.3561 389.605C83.4479 386.914 80.1554 384.671 76.5868 382.949C75.9522 382.649 75.3895 382.362 74.8987 382.158L73.6176 381.668L72.8394 381.356L72.576 381.225L72.8634 381.296L73.6655 381.56L74.9585 382.003C75.4733 382.182 76.036 382.458 76.6825 382.733C80.3185 384.398 83.6778 386.611 86.6435 389.294C88.674 391.164 90.5517 393.194 92.2585 395.364C94.1954 397.866 95.9138 400.529 97.3946 403.325C99.0442 406.411 100.407 409.641 101.465 412.975C102.496 416.589 103.229 420.28 103.656 424.014C104.674 431.64 105.153 438.955 105.488 445.564C105.823 452.172 105.991 458.206 106.098 463.247C106.206 468.287 106.23 472.358 106.254 475.219V478.428C106.254 478.775 106.254 479.05 106.254 479.278C106.265 479.393 106.261 479.51 106.242 479.625Z" fill="#263238"/>
<path d="M110.947 485.479C110.327 483.647 109.851 481.77 109.523 479.864C108.613 474.667 108.412 469.371 108.924 464.121C109.725 456.357 111.391 448.707 113.892 441.313C116.574 432.933 120.214 423.93 123.315 414.28C124.848 409.59 126.099 404.812 127.062 399.973C127.924 395.46 128.543 390.904 128.918 386.325C129.513 378.562 129.653 370.77 129.337 362.991C129.109 356.334 128.75 350.959 128.535 347.247L128.283 342.973C128.283 342.506 128.283 342.135 128.283 341.86C128.267 341.732 128.267 341.604 128.283 341.477C128.294 341.6 128.294 341.724 128.283 341.848C128.283 342.135 128.343 342.494 128.391 342.961C128.479 343.983 128.598 345.407 128.75 347.235C129.037 350.947 129.456 356.322 129.732 362.979C130.11 370.775 130.014 378.588 129.444 386.373C129.084 390.972 128.472 395.548 127.613 400.081C126.652 404.941 125.401 409.738 123.865 414.448C120.741 424.133 117.089 433.1 114.395 441.469C111.877 448.843 110.174 456.471 109.319 464.216C108.781 469.436 108.918 474.703 109.726 479.888C110.049 481.72 110.349 483.133 110.6 484.078C110.708 484.533 110.804 484.893 110.863 485.156C110.903 485.26 110.932 485.369 110.947 485.479Z" fill="#263238"/>
<path d="M143.308 491.369H82.0101L80.6094 479.577H143.308V491.369Z" fill="#7F3E3B"/>
<path d="M88.595 490.029L96.2572 525.431H129.564L136.736 490.029H88.595Z" fill="#7F3E3B"/>
<path d="M143.356 491.369C143.356 491.537 129.887 491.633 113.258 491.585C96.6284 491.537 83.1595 491.369 83.1595 491.202C83.1595 491.034 96.6403 490.95 113.27 490.998C129.899 491.046 143.356 491.214 143.356 491.369Z" fill="#455A64"/>
<path d="M132.797 508.849C131.129 507.601 129.316 506.56 127.397 505.748C125.301 504.926 123.076 504.48 120.824 504.431C118.068 504.441 115.335 504.944 112.755 505.916C109.965 506.862 107.356 507.963 104.817 508.562C102.559 509.053 100.229 509.121 97.9453 508.765C96.41 508.549 94.9212 508.08 93.5395 507.376C93.1652 507.18 92.8087 506.952 92.474 506.694C92.2465 506.526 92.1268 506.431 92.1388 506.407C92.1507 506.383 92.6655 506.718 93.6353 507.173C95.0249 507.785 96.4975 508.189 98.0052 508.37C100.238 508.656 102.503 508.547 104.698 508.047C107.152 507.436 109.762 506.323 112.575 505.377C115.219 504.383 118.024 503.884 120.848 503.904C123.154 503.988 125.425 504.486 127.553 505.377C128.98 505.973 130.321 506.758 131.54 507.712C131.874 507.964 132.194 508.236 132.497 508.526C132.701 508.717 132.809 508.825 132.797 508.849Z" fill="#263238"/>
<path d="M132.33 511.208C130.719 510.002 128.981 508.978 127.146 508.155C125.133 507.334 122.986 506.891 120.812 506.85C118.149 506.858 115.507 507.332 113.006 508.25C110.301 509.16 107.775 510.202 105.356 510.86C103.21 511.475 100.976 511.726 98.7474 511.603C97.241 511.498 95.7712 511.09 94.4254 510.405C94.0649 510.214 93.7205 509.994 93.3958 509.747C93.1683 509.579 93.0606 509.484 93.0726 509.472C93.0845 509.46 93.5874 509.771 94.5212 510.202C95.8719 510.776 97.3167 511.096 98.7833 511.148C100.954 511.217 103.122 510.93 105.2 510.298C107.595 509.639 110.085 508.574 112.827 507.664C115.388 506.725 118.097 506.255 120.824 506.275C123.057 506.345 125.255 506.84 127.301 507.736C128.675 508.338 129.963 509.119 131.132 510.058C131.453 510.305 131.757 510.573 132.042 510.86C132.246 511.088 132.342 511.196 132.33 511.208Z" fill="white"/>
<path d="M133.395 506.503C131.678 505.205 129.818 504.109 127.852 503.234C125.718 502.314 123.442 501.767 121.124 501.618C118.261 501.543 115.412 502.04 112.743 503.079C110.054 504.13 107.308 505.029 104.518 505.772C102.168 506.169 99.7684 506.169 97.4185 505.772C95.838 505.52 94.3044 505.032 92.869 504.324C92.4842 504.126 92.1159 503.898 91.7676 503.641C91.5281 503.462 91.4084 503.366 91.4204 503.342C91.4323 503.318 91.9591 503.665 92.9648 504.12C94.4149 504.714 95.9362 505.116 97.4903 505.317C99.789 505.647 102.126 505.602 104.41 505.186C107.169 504.421 109.886 503.513 112.551 502.468C115.273 501.411 118.182 500.918 121.1 501.019C123.474 501.196 125.797 501.796 127.96 502.791C129.421 503.441 130.797 504.269 132.054 505.257C132.398 505.522 132.726 505.805 133.036 506.108C133.311 506.371 133.407 506.479 133.395 506.503Z" fill="white"/>
<path d="M143.859 491.429C143.859 491.585 130.067 491.717 113.054 491.717C96.0417 491.717 82.2975 491.597 82.2975 491.429C82.2975 491.262 96.0896 491.13 113.09 491.13C130.091 491.13 143.859 491.262 143.859 491.429Z" fill="#7F3E3B"/>
<path d="M464.022 203.963C463.454 203.272 462.99 202.502 462.645 201.676C461.831 200.132 460.67 197.833 459.197 194.852C456.252 188.866 452.014 180.21 446.913 169.375C436.617 147.705 422.454 117.463 406.651 83.2942H409.476C407.321 88.3106 405.022 93.5904 402.867 99.0258C398.976 108.604 395.421 118.181 392.284 127.4C390.656 132.021 389.231 136.607 387.77 141.084C386.31 145.562 385.029 149.992 383.808 154.254C378.851 171.542 375.187 187.333 372.518 200.682C369.848 214.032 368.148 224.914 366.974 232.445C366.388 236.216 365.993 239.149 365.646 241.125C365.549 242.15 365.328 243.159 364.987 244.13C364.845 243.109 364.845 242.074 364.987 241.053C365.131 239.054 365.334 236.084 365.729 232.289C366.531 224.699 367.92 213.732 370.315 200.275C372.709 186.819 376.169 170.895 381.006 153.476C382.203 149.118 383.544 144.676 384.897 140.139C386.25 135.601 387.734 131.004 389.351 126.358C392.475 117.032 396.031 107.478 399.934 97.7926C402.113 92.3333 404.436 87.0176 406.603 81.9892C406.683 81.8027 406.8 81.6339 406.946 81.4926C407.092 81.3513 407.265 81.2402 407.454 81.1657C407.643 81.0912 407.845 81.0547 408.048 81.0584C408.251 81.062 408.452 81.1058 408.638 81.1871C408.986 81.3333 409.265 81.6076 409.416 81.9533C425.148 116.158 438.964 146.604 448.757 168.453C453.654 179.408 457.557 188.231 460.179 194.337C461.484 197.39 462.477 199.761 463.124 201.377C463.545 202.192 463.847 203.063 464.022 203.963Z" fill="#E13068"/>
<path d="M443.98 152.386C444.208 153.224 421.676 160.072 393.697 167.687C365.717 175.301 342.766 180.856 342.539 179.97C342.311 179.084 364.843 172.284 392.882 164.67C420.922 157.055 443.753 151.584 443.98 152.386Z" fill="#E13068"/>
<path d="M428.296 57.1706C428.741 56.8336 429.228 56.5559 429.745 56.3446L431.577 55.4347C432.319 55.0994 433.217 54.7762 434.223 54.3811C436.727 53.4594 439.313 52.774 441.945 52.3338C445.561 51.7898 449.236 51.7495 452.864 52.2141C457.413 52.8559 461.828 54.2305 465.937 56.2847C470.788 58.7829 475.272 61.9373 479.262 65.659C483.84 69.9205 487.91 74.6972 491.39 79.894C492.347 81.2898 493.2 82.7544 493.94 84.2759C494.707 85.7964 495.509 87.3288 496.275 88.8972L498.334 93.8058C499.053 95.458 499.532 97.206 500.154 98.9419C502.512 106.283 503.983 113.879 504.536 121.57C505.099 129.891 504.802 138.248 503.65 146.508C502.409 155.328 500.516 164.043 497.987 172.583C497.388 174.798 496.634 176.977 495.964 179.204C495.293 181.431 494.383 183.634 493.569 185.873C492.6 188.04 491.702 190.255 490.636 192.422L488.972 195.642L488.146 197.258L487.212 198.827C482.174 207.441 476.147 215.436 469.254 222.652C462.089 230.163 454.17 236.915 445.62 242.801C436.835 249.008 427.347 254.156 417.354 258.137C406.946 262.287 395.811 264.303 384.61 264.064C378.918 263.887 373.293 262.783 367.956 260.795C362.648 258.803 357.801 255.752 353.709 251.828C351.689 249.914 349.85 247.818 348.214 245.566C346.587 243.353 345.13 241.02 343.856 238.587C341.346 233.816 339.34 228.796 337.87 223.609C332.491 203.916 331.413 183.296 334.709 163.149C336.201 153.81 338.513 144.619 341.617 135.685C342.012 134.607 342.395 133.53 342.814 132.452C343.233 131.375 343.581 130.309 344.012 129.268C344.882 127.185 345.744 125.113 346.598 123.054L349.447 117.068C350.357 115.069 351.482 113.201 352.476 111.285C356.443 103.977 360.979 96.9915 366.041 90.3937L367.836 87.9993L369.716 85.7245C370.985 84.228 372.182 82.7075 373.463 81.2828L377.306 77.0925C378.504 75.6798 379.94 74.4466 381.221 73.1417C383.783 70.5197 386.561 68.245 389.147 65.9583L393.194 62.7497L395.181 61.1814L397.216 59.7447L401.215 56.9432L405.226 54.429L407.177 53.2318L409.165 52.1183L413.044 49.9753C415.618 48.6344 418.168 47.4372 420.598 46.2639C423.029 45.0906 425.459 44.1568 427.782 43.2349L434.474 40.7566L440.628 38.7932C448.458 36.4825 454.635 35.1057 458.85 34.3036C460.957 33.9205 462.573 33.6331 463.639 33.4655C464.178 33.3258 464.734 33.2653 465.291 33.2859C464.781 33.5121 464.247 33.6769 463.698 33.7768C462.633 34.0522 461.041 34.4353 458.91 34.9142C454.755 35.9198 448.637 37.4762 440.951 39.9545L434.893 42.0377L428.296 44.5638C426.022 45.5216 423.699 46.5991 421.245 47.6766C418.79 48.7541 416.372 50.0711 413.846 51.4599L410.051 53.6388L408.099 54.7522L406.184 55.9495L402.257 58.4756L398.366 61.337L396.378 62.7737L394.439 64.3301L390.488 67.5267C387.962 69.8493 385.256 72.112 382.766 74.71C381.509 76.003 380.144 77.2242 378.935 78.625C377.726 80.0257 376.444 81.3786 375.187 82.7913C373.93 84.2041 372.793 85.7245 371.536 87.1971L369.692 89.4599L367.944 91.8543C363 98.3854 358.577 105.295 354.715 112.519C353.745 114.41 352.656 116.254 351.77 118.217L349.004 124.132L346.502 130.261C346.059 131.279 345.676 132.333 345.305 133.398L344.191 136.583C341.206 145.365 338.991 154.39 337.57 163.556C336.066 173.196 335.544 182.964 336.014 192.709C336.465 202.859 338.072 212.925 340.803 222.711C342.219 227.685 344.145 232.5 346.55 237.078C347.758 239.378 349.139 241.583 350.68 243.675C352.214 245.779 353.937 247.739 355.828 249.529C359.618 253.151 364.097 255.977 368.998 257.838C374.027 259.694 379.323 260.724 384.681 260.891C395.46 261.102 406.173 259.161 416.192 255.18C425.981 251.303 435.279 246.288 443.896 240.239C452.287 234.489 460.066 227.894 467.111 220.556C473.851 213.525 479.753 205.735 484.698 197.342L485.608 195.81L486.422 194.241L488.05 191.117C489.092 189.021 489.966 186.866 490.923 184.771C491.702 182.592 492.552 180.473 493.258 178.294C493.964 176.115 494.695 173.948 495.293 171.757C497.833 163.362 499.75 154.79 501.028 146.113C502.217 138.029 502.566 129.845 502.07 121.689C501.598 114.179 500.231 106.751 497.999 99.5645C497.412 97.8764 496.957 96.1524 496.275 94.5361C495.593 92.9199 494.958 91.3036 494.312 89.7472L492.085 85.1978C491.393 83.7274 490.593 82.3107 489.69 80.9596C486.363 75.8435 482.459 71.1273 478.053 66.9041C474.23 63.2329 469.924 60.0993 465.255 57.5897C461.326 55.5382 457.094 54.1277 452.72 53.4113C449.2 52.87 445.623 52.8136 442.088 53.2437C439.497 53.5953 436.941 54.1722 434.45 54.9677C433.445 55.3149 432.547 55.5783 431.78 55.8657L429.901 56.6319C429.39 56.8768 428.851 57.0577 428.296 57.1706Z" fill="#E13068"/>
<path d="M455.15 136.14C454.288 136.14 452.84 121.773 451.93 103.815C451.02 85.8563 450.96 71.3699 451.822 71.3699C452.684 71.3699 454.121 85.7366 455.043 103.695C455.964 121.653 456 136.092 455.15 136.14Z" fill="#E13068"/>
<path d="M474.569 95.9609C474.893 96.751 465.482 101.348 453.331 105.646C441.179 109.944 430.978 112.339 430.739 111.525C430.499 110.711 440.221 107.011 452.289 102.713C464.357 98.4152 474.246 95.1587 474.569 95.9609Z" fill="#E13068"/>
</svg>
