<svg width="1440" height="153" viewBox="0 0 1440 153" fill="none" xmlns="http://www.w3.org/2000/svg">
<path fill-rule="evenodd" clip-rule="evenodd" d="M152.284 50.8891C147.73 44.0296 141.768 37.1509 138.938 36.6723C135.802 36.142 137.244 43.5903 138.59 50.5433L138.59 50.5434C139.356 54.496 140.09 58.2884 139.935 60.3641L120.293 51.8911L128.83 32.7857L125.05 31.0967L123.36 34.8768L119.58 33.1877L121.269 29.4076L117.489 27.7185L115.8 31.4987L112.02 29.8096L113.709 26.0295L109.929 24.3404L108.24 28.1205L104.46 26.4315L106.149 22.6513L102.369 20.9622L100.68 24.7424L96.8994 23.0533L98.5885 19.2732L94.8083 17.5841L93.1193 21.3642L89.3391 19.6752L91.0282 15.895L87.248 14.2059L78.4705 33.85L0 0V153H153H710H1287H1440V0L1360.86 34.1367L1351.96 14.2059L1348.18 15.895L1349.87 19.6751L1346.09 21.3642L1344.4 17.584L1340.62 19.2731L1342.31 23.0533L1338.53 24.7423L1336.84 20.9622L1333.06 22.6513L1334.75 26.4314L1330.97 28.1205L1329.28 24.3403L1325.5 26.0294L1327.19 29.8096L1323.41 31.4986L1321.72 27.7185L1317.94 29.4076L1319.63 33.1877L1315.85 34.8768L1314.16 31.0966L1310.38 32.7857L1319.04 52.1777L1299.31 60.6914C1299.04 58.706 1299.81 54.7138 1300.62 50.5434L1300.62 50.5424C1301.96 43.5897 1303.41 36.142 1300.27 36.6722C1297.44 37.1509 1291.48 44.0296 1286.92 50.889C1278.44 44.0478 1267.06 37.217 1263.21 37.8673C1259.32 38.5248 1264.05 46.6761 1268.47 54.2854C1271.18 58.9567 1273.77 63.4238 1274.17 65.8274L1274.18 65.8871C1274.19 65.9248 1274.2 65.9624 1274.2 66H1234.86C1235.06 65.6074 1235.19 65.1704 1235.22 64.7047L1235.51 61.2188L1252.83 62.6151C1255.93 62.8657 1257.89 59.241 1256.02 56.6864L1249.19 47.407L1250.85 47.5404C1253.62 47.7638 1255.38 44.6374 1253.75 42.3861L1247.79 34.1344L1248.96 34.229C1251.28 34.4161 1252.74 32.0662 1251.39 30.3329L1237.98 13.1835C1236.95 11.8607 1235.01 11.704 1233.77 12.8436L1217.78 27.6212C1216.16 29.1152 1217.23 31.6692 1219.55 31.8563L1220.73 31.951L1213.53 39.1418C1211.56 41.1045 1212.8 44.4705 1215.57 44.6938L1217.22 44.8275L1209 52.8937C1206.73 55.1336 1208.14 58.9104 1211.33 59.168L1228.53 60.6538L1228.25 64.1397C1228.19 64.8069 1228.33 65.4447 1228.61 66H1201.74L1204.52 36.8533C1204.61 35.9029 1204.32 34.9556 1203.72 34.2198C1203.12 33.4841 1202.25 33.0202 1201.31 32.9301L1183.53 31.2328C1182.59 31.1428 1181.65 31.434 1180.92 32.0424C1180.19 32.6508 1179.72 33.5266 1179.63 34.477L1176.72 64.9385C1176.69 65.3099 1176.77 65.6803 1176.95 66H1173.74C1173.82 65.8361 1173.86 65.6502 1173.85 65.4627L1173.33 58.4821L1175.32 58.3335C1175.52 58.3203 1175.71 58.2505 1175.86 58.1325C1176.02 58.0146 1176.13 57.8538 1176.2 57.6698C1176.26 57.4859 1176.27 57.2869 1176.23 57.0973C1176.18 56.9078 1176.08 56.736 1175.94 56.6032L1166.22 47.2993C1166.12 47.2035 1166 47.1298 1165.87 47.083C1165.74 47.0363 1165.6 47.0174 1165.46 47.0278C1165.32 47.0382 1165.18 47.0774 1165.06 47.1431C1164.94 47.2088 1164.83 47.2995 1164.74 47.4093L1156.51 58.0501C1156.36 58.2481 1156.28 58.4971 1156.3 58.7476C1156.32 59.0121 1156.45 59.2579 1156.65 59.431C1156.85 59.6041 1157.11 59.6902 1157.37 59.6705L1159.37 59.522L1159.85 66H1142.84L1142.19 61.2349L1154.27 59.5938L1143.81 47.2741L1148.98 46.5708L1136.8 34.4856L1128.28 49.3841L1133.46 48.6808L1126.67 63.3448L1138.74 61.7038L1139.33 66H710H299.881L300.465 61.7038L312.539 63.3449L305.749 48.6808L310.923 49.3841L302.408 34.4856L290.225 46.5709L295.4 47.2742L284.942 59.5939L297.015 61.2349L296.368 66H279.357L279.839 59.522L281.834 59.6706C282.098 59.6903 282.36 59.6041 282.561 59.431C282.762 59.2579 282.886 59.0121 282.905 58.7476C282.926 58.4972 282.851 58.2482 282.697 58.0502L274.464 47.4093C274.378 47.2995 274.271 47.2089 274.148 47.1432C274.025 47.0775 273.89 47.0382 273.751 47.0278C273.612 47.0175 273.472 47.0363 273.341 47.0831C273.21 47.1298 273.09 47.2035 272.988 47.2994L263.27 56.6032C263.127 56.7361 263.026 56.9078 262.98 57.0974C262.933 57.2869 262.943 57.4859 263.009 57.6698C263.074 57.8538 263.191 58.0147 263.347 58.1326C263.502 58.2505 263.689 58.3204 263.884 58.3336L265.878 58.4821L265.358 65.4628C265.344 65.6502 265.383 65.8361 265.469 66H262.258C262.439 65.6803 262.519 65.3099 262.483 64.9385L259.575 34.4771C259.484 33.5266 259.022 32.6509 258.291 32.0424C257.561 31.434 256.62 31.1428 255.677 31.2328L237.901 32.9302C236.958 33.0202 236.09 33.4841 235.487 34.2199C234.885 34.9556 234.597 35.9029 234.688 36.8534L237.471 66H210.6C210.879 65.4447 211.014 64.807 210.96 64.1397L210.679 60.6538L227.873 59.1681C231.067 58.9104 232.474 55.1337 230.203 52.8937L221.984 44.8275L223.641 44.6939C226.409 44.4705 227.646 41.1046 225.681 39.1419L218.48 31.9511L219.654 31.8564C221.974 31.6692 223.042 29.1153 221.427 27.6212L205.434 12.8436C204.201 11.7041 202.258 11.8608 201.224 13.1836L187.817 30.3329C186.465 32.0663 187.927 34.4161 190.246 34.229L191.418 34.1345L185.456 42.3861C183.829 44.6374 185.589 47.7639 188.359 47.5404L190.012 47.407L183.192 56.6864C181.314 59.241 183.273 62.8658 186.38 62.6151L203.702 61.2188L203.983 64.7047C204.021 65.1704 204.149 65.6074 204.348 66H165.004C165.014 65.9427 165.024 65.8851 165.034 65.8274C165.44 63.4239 168.032 58.9569 170.741 54.2856C175.155 46.6763 179.884 38.5248 175.995 37.8673C172.149 37.2171 160.768 44.0478 152.284 50.8891ZM1356.62 34.7957L1357.06 35.7768L1353.26 37.4169L1352.84 36.4848L1356.62 34.7957ZM1349.06 38.1739L1349.46 39.057L1345.66 40.6971L1345.28 39.8629L1349.06 38.1739ZM1341.5 41.552L1341.85 42.3372L1338.05 43.9773L1337.72 43.2411L1341.5 41.552ZM1333.94 44.9302L1334.25 45.6173L1330.45 47.2574L1330.16 46.6192L1333.94 44.9302ZM1326.38 48.3083L1326.65 48.8975L1322.84 50.5376L1322.6 49.9974L1326.38 48.3083ZM82.2726 35.4901L86.0746 37.1302L86.363 36.4848L82.5828 34.7957L82.2726 35.4901ZM89.8766 38.7703L93.6787 40.4104L93.9233 39.863L90.1431 38.1739L89.8766 38.7703ZM116.491 50.251L116.604 49.9974L112.824 48.3083L112.689 48.6109L116.491 50.251ZM108.887 46.9708L109.044 46.6193L105.264 44.9302L105.085 45.3307L108.887 46.9708ZM101.283 43.6906L101.484 43.2411L97.7034 41.552L97.4807 42.0505L101.283 43.6906ZM247.407 57.3372L242.074 57.8464L241.732 54.2627L247.065 53.7534L247.407 57.3372ZM246.722 50.1697L241.39 50.679L241.047 47.0952L246.38 46.586L246.722 50.1697ZM246.038 43.0023L240.705 43.5116L240.363 39.9278L245.696 39.4186L246.038 43.0023ZM256.295 56.4885L250.962 56.9977L250.62 53.414L255.953 52.9048L256.295 56.4885ZM255.611 49.3211L250.278 49.8303L249.935 46.2466L255.268 45.7374L255.611 49.3211ZM254.926 42.1537L249.593 42.6629L249.251 39.0792L254.584 38.57L254.926 42.1537ZM91.4302 25.1444L87.65 23.4553L84.2719 31.0156L88.052 32.7047L91.4302 25.1444ZM98.9905 28.5225L95.2103 26.8335L91.8322 34.3937L95.6123 36.0828L98.9905 28.5225ZM106.551 31.9007L102.771 30.2116L99.3925 37.7719L103.173 39.461L106.551 31.9007ZM114.111 35.2788L110.331 33.5897L106.953 41.15L110.733 42.8391L114.111 35.2788ZM121.671 38.657L117.891 36.9679L114.513 44.5282L118.293 46.2173L121.671 38.657ZM1197.13 57.8463L1191.8 57.3371L1192.14 53.7534L1197.48 54.2626L1197.13 57.8463ZM1197.82 50.6789L1192.48 50.1697L1192.83 46.586L1198.16 47.0952L1197.82 50.6789ZM1198.5 43.5115L1193.17 43.0023L1193.51 39.4186L1198.84 39.9278L1198.5 43.5115ZM1188.25 56.9976L1182.91 56.4884L1183.25 52.9047L1188.59 53.4139L1188.25 56.9976ZM1188.93 49.8302L1183.6 49.321L1183.94 45.7373L1189.27 46.2465L1188.93 49.8302ZM1189.61 42.6628L1184.28 42.1536L1184.62 38.5699L1189.96 39.0791L1189.61 42.6628ZM1351.56 23.4553L1347.78 25.1443L1351.16 32.7046L1354.94 31.0156L1351.56 23.4553ZM1344 26.8334L1340.22 28.5225L1343.59 36.0828L1347.38 34.3937L1344 26.8334ZM1336.44 30.2116L1332.66 31.9006L1336.03 39.4609L1339.81 37.7719L1336.44 30.2116ZM1328.88 33.5897L1325.1 35.2788L1328.47 42.8391L1332.25 41.15L1328.88 33.5897ZM1321.32 36.9679L1317.54 38.6569L1320.91 46.2172L1324.69 44.5282L1321.32 36.9679Z" fill="white"/>
</svg>
