<svg width="420" height="73" viewBox="0 0 420 73" fill="none" xmlns="http://www.w3.org/2000/svg">
<path opacity="0.08" d="M27.8051 72.7C22.6717 72.7 18.0717 71.8667 14.0051 70.2C9.93841 68.5333 6.67175 66.0667 4.20508 62.8C1.80508 59.5333 0.538412 55.6 0.405078 51H18.6051C18.8717 53.6 19.7717 55.6 21.3051 57C22.8384 58.3333 24.8384 59 27.3051 59C29.8384 59 31.8384 58.4333 33.3051 57.3C34.7717 56.1 35.5051 54.4667 35.5051 52.4C35.5051 50.6667 34.9051 49.2333 33.7051 48.1C32.5717 46.9667 31.1384 46.0333 29.4051 45.3C27.7384 44.5667 25.3384 43.7333 22.2051 42.8C17.6717 41.4 13.9717 40 11.1051 38.6C8.23841 37.2 5.77175 35.1333 3.70508 32.4C1.63841 29.6667 0.605078 26.1 0.605078 21.7C0.605078 15.1667 2.97175 10.0667 7.70508 6.4C12.4384 2.66667 18.6051 0.799999 26.2051 0.799999C33.9384 0.799999 40.1717 2.66667 44.9051 6.4C49.6384 10.0667 52.1717 15.2 52.5051 21.8H34.0051C33.8717 19.5333 33.0384 17.7667 31.5051 16.5C29.9717 15.1667 28.0051 14.5 25.6051 14.5C23.5384 14.5 21.8717 15.0667 20.6051 16.2C19.3384 17.2667 18.7051 18.8333 18.7051 20.9C18.7051 23.1667 19.7717 24.9333 21.9051 26.2C24.0384 27.4667 27.3717 28.8333 31.9051 30.3C36.4384 31.8333 40.1051 33.3 42.9051 34.7C45.7717 36.1 48.2384 38.1333 50.3051 40.8C52.3717 43.4667 53.4051 46.9 53.4051 51.1C53.4051 55.1 52.3717 58.7333 50.3051 62C48.3051 65.2667 45.3717 67.8667 41.5051 69.8C37.6384 71.7333 33.0717 72.7 27.8051 72.7ZM91.0285 1.8V72H73.9285V1.8H91.0285ZM154.121 72L130.521 41V72H113.421V1.8H130.521V32.6L153.921 1.8H174.021L146.821 36.2L175.021 72H154.121ZM226.347 72.7C219.747 72.7 213.681 71.1667 208.147 68.1C202.681 65.0333 198.314 60.7667 195.047 55.3C191.847 49.7667 190.247 43.5667 190.247 36.7C190.247 29.8333 191.847 23.6667 195.047 18.2C198.314 12.7333 202.681 8.46667 208.147 5.4C213.681 2.33333 219.747 0.799999 226.347 0.799999C232.947 0.799999 238.981 2.33333 244.447 5.4C249.981 8.46667 254.314 12.7333 257.447 18.2C260.647 23.6667 262.247 29.8333 262.247 36.7C262.247 43.5667 260.647 49.7667 257.447 55.3C254.247 60.7667 249.914 65.0333 244.447 68.1C238.981 71.1667 232.947 72.7 226.347 72.7ZM226.347 57.1C231.947 57.1 236.414 55.2333 239.747 51.5C243.147 47.7667 244.847 42.8333 244.847 36.7C244.847 30.5 243.147 25.5667 239.747 21.9C236.414 18.1667 231.947 16.3 226.347 16.3C220.681 16.3 216.147 18.1333 212.747 21.8C209.414 25.4667 207.747 30.4333 207.747 36.7C207.747 42.9 209.414 47.8667 212.747 51.6C216.147 55.2667 220.681 57.1 226.347 57.1ZM322.461 72L298.861 41V72H281.761V1.8H298.861V32.6L322.261 1.8H342.361L315.161 36.2L343.361 72H322.461ZM378.287 1.8V43.8C378.287 48 379.32 51.2333 381.387 53.5C383.454 55.7667 386.487 56.9 390.487 56.9C394.487 56.9 397.554 55.7667 399.687 53.5C401.82 51.2333 402.887 48 402.887 43.8V1.8H419.987V43.7C419.987 49.9667 418.654 55.2667 415.987 59.6C413.32 63.9333 409.72 67.2 405.187 69.4C400.72 71.6 395.72 72.7 390.187 72.7C384.654 72.7 379.687 71.6333 375.287 69.5C370.954 67.3 367.52 64.0333 364.987 59.7C362.454 55.3 361.187 49.9667 361.187 43.7V1.8H378.287Z" fill="white"/>
</svg>
