<svg width="1440" height="153" viewBox="0 0 1440 153" fill="none" xmlns="http://www.w3.org/2000/svg">
<path fill-rule="evenodd" clip-rule="evenodd" d="M152.284 50.889C147.73 44.0295 141.768 37.1508 138.938 36.6721C135.802 36.1419 137.244 43.5902 138.59 50.5432C139.356 54.4958 140.09 58.2884 139.935 60.3641L120.293 51.8911L128.83 32.7859L125.05 31.0968L123.36 34.8769L119.58 33.1879L121.269 29.4077L117.489 27.7186L115.8 31.4988L112.02 29.8097L113.709 26.0296L109.929 24.3405L108.24 28.1206L104.46 26.4316L106.149 22.6514L102.369 20.9624L100.68 24.7425L96.8994 23.0534L98.5885 19.2733L94.8083 17.5842L93.1193 21.3644L89.3391 19.6753L91.0282 15.8951L87.248 14.2061L78.4706 33.8501L0 0V153H153H710H1287H1440V0L1360.86 34.1367L1351.96 14.2061L1348.18 15.8952L1349.87 19.6754L1346.09 21.3644L1344.4 17.5843L1340.62 19.2734L1342.31 23.0535L1338.53 24.7426L1336.84 20.9624L1333.06 22.6515L1334.75 26.4317L1330.97 28.1207L1329.28 24.3406L1325.5 26.0297L1327.19 29.8098L1323.41 31.4989L1321.72 27.7187L1317.94 29.4078L1319.63 33.188L1315.85 34.877L1314.16 31.0969L1310.38 32.786L1319.04 52.1778L1299.31 60.6914C1299.04 58.706 1299.81 54.7138 1300.62 50.5434L1300.62 50.5424C1301.96 43.5897 1303.41 36.142 1300.27 36.6722C1297.44 37.1509 1291.48 44.0296 1286.92 50.8891C1278.44 44.0479 1267.06 37.2172 1263.21 37.8674C1259.32 38.5249 1264.05 46.6762 1268.47 54.2855C1271.18 58.9569 1273.77 63.4239 1274.17 65.8275C1274.18 65.8852 1274.19 65.9427 1274.2 66H1234.86C1235.06 65.6074 1235.19 65.1704 1235.22 64.7047L1235.51 61.2188L1252.83 62.6151C1255.93 62.8657 1257.89 59.241 1256.02 56.6864L1249.19 47.4069L1250.85 47.5404C1253.62 47.7638 1255.38 44.6374 1253.75 42.3861L1247.79 34.1344L1248.96 34.229C1251.28 34.4161 1252.74 32.0662 1251.39 30.3329L1237.98 13.1835C1236.95 11.8607 1235.01 11.704 1233.77 12.8436L1217.78 27.6212C1216.16 29.1152 1217.23 31.6692 1219.55 31.8563L1220.73 31.951L1213.53 39.1418C1211.56 41.1045 1212.8 44.4705 1215.57 44.6938L1217.22 44.8275L1209 52.8937C1206.73 55.1336 1208.14 58.9104 1211.33 59.168L1228.53 60.6538L1228.25 64.1397C1228.19 64.8069 1228.33 65.4447 1228.61 66H1201.74L1204.52 36.8533C1204.61 35.9029 1204.32 34.9556 1203.72 34.2198C1203.12 33.4841 1202.25 33.0202 1201.31 32.9301L1183.53 31.2328C1182.59 31.1428 1181.65 31.434 1180.92 32.0424C1180.19 32.6508 1179.72 33.5266 1179.63 34.477L1176.72 64.9385C1176.69 65.3099 1176.77 65.6803 1176.95 66H1173.74C1173.82 65.8361 1173.86 65.6503 1173.85 65.463L1173.33 58.4823L1175.32 58.3338C1175.52 58.3206 1175.71 58.2507 1175.86 58.1328C1176.02 58.0149 1176.13 57.854 1176.2 57.6701C1176.26 57.4861 1176.27 57.2871 1176.23 57.0976C1176.18 56.908 1176.08 56.7363 1175.94 56.6034L1166.22 47.2996C1166.12 47.2037 1166 47.13 1165.87 47.0833C1165.74 47.0365 1165.6 47.0177 1165.46 47.028C1165.32 47.0384 1165.18 47.0777 1165.06 47.1434C1164.94 47.2091 1164.83 47.2997 1164.74 47.4095L1156.51 58.0504C1156.36 58.2484 1156.28 58.4974 1156.3 58.7478C1156.32 59.0123 1156.45 59.2581 1156.65 59.4312C1156.85 59.6043 1157.11 59.6905 1157.37 59.6708L1159.37 59.5222L1159.85 66H1142.84L1142.19 61.235L1154.27 59.5939L1143.81 47.2743L1148.98 46.5709L1136.8 34.4857L1128.28 49.3842L1133.46 48.6809L1126.67 63.345L1138.74 61.7039L1139.33 66H710H299.881L300.465 61.7038L312.539 63.3449L305.749 48.6808L310.923 49.3841L302.408 34.4856L290.225 46.5709L295.4 47.2742L284.942 59.5939L297.015 61.2349L296.368 66H279.357L279.839 59.5221L281.834 59.6707C282.098 59.6904 282.36 59.6042 282.561 59.4311C282.762 59.258 282.886 59.0122 282.905 58.7477C282.926 58.4973 282.851 58.2483 282.697 58.0503L274.464 47.4094C274.378 47.2996 274.271 47.209 274.148 47.1433C274.025 47.0776 273.89 47.0383 273.751 47.028C273.612 47.0176 273.472 47.0364 273.341 47.0832C273.21 47.1299 273.09 47.2036 272.988 47.2995L263.27 56.6034C263.127 56.7362 263.026 56.908 262.98 57.0975C262.933 57.287 262.943 57.486 263.009 57.67C263.074 57.8539 263.191 58.0148 263.347 58.1327C263.502 58.2506 263.689 58.3205 263.884 58.3337L265.878 58.4822L265.358 65.4629C265.344 65.6503 265.383 65.8361 265.469 66H262.258C262.439 65.6803 262.519 65.3098 262.483 64.9384L259.575 34.4769C259.484 33.5265 259.022 32.6507 258.291 32.0423C257.561 31.4339 256.62 31.1427 255.677 31.2327L237.901 32.9301C236.958 33.0201 236.09 33.484 235.487 34.2197C234.885 34.9555 234.597 35.9028 234.688 36.8532L237.471 66H210.6C210.879 65.4447 211.014 64.8069 210.96 64.1396L210.679 60.6537L227.873 59.1679C231.067 58.9103 232.474 55.1335 230.203 52.8936L221.984 44.8274L223.641 44.6937C226.409 44.4704 227.646 41.1045 225.681 39.1418L218.48 31.951L219.654 31.8563C221.974 31.6691 223.042 29.1151 221.427 27.6211L205.434 12.8435C204.201 11.7039 202.258 11.8607 201.224 13.1835L187.817 30.3328C186.465 32.0661 187.927 34.416 190.246 34.2289L191.418 34.1343L185.456 42.386C183.829 44.6373 185.589 47.7637 188.359 47.5403L190.012 47.4069L183.192 56.6863C181.314 59.2409 183.273 62.8656 186.38 62.615L203.702 61.2187L203.983 64.7046C204.021 65.1704 204.149 65.6073 204.348 66H165.004C165.014 65.9427 165.024 65.8851 165.034 65.8274C165.44 63.4239 168.032 58.9569 170.741 54.2856C175.155 46.6763 179.884 38.5248 175.995 37.8673C172.15 37.2171 160.768 44.0478 152.284 50.889ZM1356.62 34.796L1357.06 35.7768L1353.26 37.4169L1352.84 36.485L1356.62 34.796ZM1349.06 38.1741L1349.46 39.057L1345.66 40.6971L1345.28 39.8632L1349.06 38.1741ZM1341.5 41.5523L1341.85 42.3372L1338.05 43.9773L1337.72 43.2413L1341.5 41.5523ZM1333.94 44.9304L1334.25 45.6174L1330.45 47.2575L1330.16 46.6195L1333.94 44.9304ZM1326.38 48.3086L1326.65 48.8976L1322.84 50.5377L1322.6 49.9976L1326.38 48.3086ZM82.2726 35.4901L86.0746 37.1302L86.363 36.4849L82.5828 34.7959L82.2726 35.4901ZM89.8767 38.7703L93.6787 40.4104L93.9233 39.8631L90.1431 38.174L89.8767 38.7703ZM116.491 50.251L116.604 49.9975L112.824 48.3085L112.689 48.6109L116.491 50.251ZM108.887 46.9708L109.044 46.6194L105.264 44.9303L105.085 45.3307L108.887 46.9708ZM101.283 43.6906L101.484 43.2412L97.7034 41.5522L97.4807 42.0505L101.283 43.6906ZM247.407 57.337L242.074 57.8462L241.732 54.2625L247.065 53.7533L247.407 57.337ZM246.722 50.1696L241.39 50.6788L241.047 47.0951L246.38 46.5859L246.722 50.1696ZM246.038 43.0022L240.705 43.5114L240.363 39.9277L245.696 39.4185L246.038 43.0022ZM256.295 56.4884L250.962 56.9976L250.62 53.4139L255.953 52.9047L256.295 56.4884ZM255.611 49.321L250.278 49.8302L249.935 46.2465L255.268 45.7373L255.611 49.321ZM254.926 42.1536L249.593 42.6628L249.251 39.0791L254.584 38.5699L254.926 42.1536ZM91.4302 25.1445L87.65 23.4554L84.2719 31.0157L88.052 32.7048L91.4302 25.1445ZM98.9905 28.5226L95.2103 26.8336L91.8322 34.3939L95.6123 36.0829L98.9905 28.5226ZM106.551 31.9008L102.771 30.2117L99.3925 37.772L103.173 39.4611L106.551 31.9008ZM114.111 35.2789L110.331 33.5899L106.953 41.1502L110.733 42.8392L114.111 35.2789ZM121.671 38.6571L117.891 36.968L114.513 44.5283L118.293 46.2174L121.671 38.6571ZM1197.13 57.8463L1191.8 57.3371L1192.14 53.7534L1197.48 54.2626L1197.13 57.8463ZM1197.82 50.6789L1192.48 50.1697L1192.83 46.586L1198.16 47.0952L1197.82 50.6789ZM1198.5 43.5115L1193.17 43.0023L1193.51 39.4186L1198.84 39.9278L1198.5 43.5115ZM1188.25 56.9976L1182.91 56.4884L1183.25 52.9047L1188.59 53.4139L1188.25 56.9976ZM1188.93 49.8302L1183.6 49.321L1183.94 45.7373L1189.27 46.2465L1188.93 49.8302ZM1189.61 42.6628L1184.28 42.1536L1184.62 38.5699L1189.96 39.0791L1189.61 42.6628ZM1351.56 23.4555L1347.78 25.1446L1351.16 32.7049L1354.94 31.0158L1351.56 23.4555ZM1344 26.8337L1340.22 28.5227L1343.59 36.083L1347.38 34.394L1344 26.8337ZM1336.44 30.2118L1332.66 31.9009L1336.03 39.4612L1339.81 37.7721L1336.44 30.2118ZM1328.88 33.59L1325.1 35.279L1328.47 42.8393L1332.25 41.1503L1328.88 33.59ZM1321.32 36.9681L1317.54 38.6572L1320.91 46.2175L1324.69 44.5284L1321.32 36.9681Z" fill="white"/>
</svg>
