<svg width="23" height="20" viewBox="0 0 23 20" fill="none" xmlns="http://www.w3.org/2000/svg">
<path d="M22.3294 7.44134H15.7815C15.6689 7.44134 15.5769 7.53342 15.5769 7.64596V8.87369C15.5769 8.98623 15.6689 9.07831 15.7815 9.07831H22.3294C22.4419 9.07831 22.534 8.98623 22.534 8.87369V7.64596C22.534 7.53342 22.4419 7.44134 22.3294 7.44134ZM18.902 10.9199H15.7815C15.6689 10.9199 15.5769 11.012 15.5769 11.1245V12.3523C15.5769 12.4648 15.6689 12.5569 15.7815 12.5569H18.902C19.0145 12.5569 19.1066 12.4648 19.1066 12.3523V11.1245C19.1066 11.012 19.0145 10.9199 18.902 10.9199ZM10.3667 5.15213H9.25916C9.10058 5.15213 8.97269 5.28002 8.97269 5.4386V11.7819C8.97269 11.874 9.01617 11.9584 9.09034 12.0121L12.8989 14.7898C13.0268 14.8819 13.2058 14.8563 13.2979 14.7284L13.9552 13.8307V13.8281C14.0473 13.7002 14.0192 13.5212 13.8913 13.4291L10.6506 11.0862V5.4386C10.6531 5.28002 10.5227 5.15213 10.3667 5.15213Z" fill="#FEFEFE"/>
<path d="M18.7434 14.1401H17.265C17.1217 14.1401 16.9862 14.2143 16.9094 14.3371C16.5846 14.8512 16.2061 15.327 15.7712 15.7618C15.0218 16.5112 14.1496 17.0995 13.1802 17.5087C12.175 17.9333 11.1084 18.1482 10.0086 18.1482C8.90618 18.1482 7.83959 17.9333 6.83694 17.5087C5.86755 17.0995 4.99535 16.5112 4.24592 15.7618C3.49649 15.0123 2.9082 14.1401 2.49896 13.1707C2.07437 12.1681 1.85952 11.1015 1.85952 9.99911C1.85952 8.89671 2.07437 7.83268 2.49896 6.82747C2.9082 5.85808 3.49649 4.98588 4.24592 4.23645C4.99535 3.48702 5.86755 2.89874 6.83694 2.48949C7.83959 2.0649 8.90874 1.85005 10.0086 1.85005C11.111 1.85005 12.1776 2.0649 13.1802 2.48949C14.1496 2.89874 15.0218 3.48702 15.7712 4.23645C16.2061 4.67127 16.5846 5.14702 16.9094 5.66113C16.9862 5.7839 17.1217 5.85808 17.265 5.85808H18.7434C18.9199 5.85808 19.0324 5.67392 18.9531 5.51789C17.2854 2.20046 13.9041 0.0442623 10.1288 0.000780188C4.60145 -0.0682797 0.0102486 4.45642 1.74742e-05 9.97865C-0.0102136 15.5111 4.47356 20 10.006 20C13.8299 20 17.2675 17.8361 18.9531 14.4803C19.0324 14.3243 18.9173 14.1401 18.7434 14.1401V14.1401Z" fill="#FEFEFE"/>
</svg>
