<svg width="1440" height="153" viewBox="0 0 1440 153" fill="none" xmlns="http://www.w3.org/2000/svg">
<path fill-rule="evenodd" clip-rule="evenodd" d="M0 153L153 87H710H1287L1440 153V0H1287H710H153H0V153Z" fill="white"/>
<path d="M165.034 87.1726C163.966 80.8537 158.012 76.5914 151.737 77.6525C145.461 78.7136 141.24 84.6963 142.308 91.0152C143.377 97.3341 169.72 116.194 175.995 115.133C182.271 114.072 166.103 93.4915 165.034 87.1726Z" fill="white"/>
<path d="M139.88 92.1721C139.02 87.0862 142.426 82.2695 147.487 81.4138C152.548 80.558 157.348 83.9873 158.208 89.0732C159.068 94.1592 143.999 115.472 138.938 116.328C133.877 117.183 140.74 97.2581 139.88 92.1721Z" fill="white"/>
<path d="M1274.17 87.1726C1275.24 80.8537 1281.2 76.5914 1287.47 77.6525C1293.75 78.7136 1297.97 84.6963 1296.9 91.0152C1295.83 97.3341 1269.49 116.194 1263.21 115.133C1256.94 114.072 1273.11 93.4915 1274.17 87.1726Z" fill="white"/>
<path d="M1299.33 92.1721C1300.19 87.0862 1296.78 82.2695 1291.72 81.4138C1286.66 80.558 1281.86 83.9873 1281 89.0732C1280.14 94.1592 1295.21 115.472 1300.27 116.328C1305.33 117.183 1298.47 97.2581 1299.33 92.1721Z" fill="white"/>
</svg>
