<svg width="89" height="71" viewBox="0 0 89 71" fill="none" xmlns="http://www.w3.org/2000/svg">
<path opacity="0.15" d="M81.4454 60.8293C89.8362 51.7412 88.9914 40.0706 88.9647 39.9375V4.4375C88.9647 3.2606 88.4962 2.13191 87.6623 1.29971C86.8284 0.467522 85.6973 0 84.518 0H57.8379C52.9333 0 48.9446 3.98044 48.9446 8.875V39.9375C48.9446 41.1144 49.4131 42.2431 50.247 43.0753C51.0809 43.9075 52.2119 44.375 53.3913 44.375H67.0781C66.9842 46.5688 66.3273 48.7019 65.1705 50.5697C62.9116 54.1242 58.6561 56.5515 52.5153 57.7763L48.9446 58.4863V71H53.3913C65.7664 71 75.2067 67.5787 81.4454 60.8293ZM32.5008 60.8293C40.8961 51.7412 40.0468 40.0706 40.0201 39.9375V4.4375C40.0201 3.2606 39.5516 2.13191 38.7177 1.29971C37.8838 0.467522 36.7528 0 35.5734 0H8.89336C3.98867 0 0 3.98044 0 8.875V39.9375C0 41.1144 0.468488 42.2431 1.3024 43.0753C2.13632 43.9075 3.26735 44.375 4.44668 44.375H18.1336C18.0396 46.5688 17.3828 48.7019 16.2259 50.5697C13.967 54.1242 9.71154 56.5515 3.57068 57.7763L0 58.4863V71H4.44668C16.8218 71 26.2621 67.5787 32.5008 60.8293Z" fill="url(#paint0_linear_220_1885)"/>
<defs>
<linearGradient id="paint0_linear_220_1885" x1="49" y1="5.5" x2="44" y2="161.5" gradientUnits="userSpaceOnUse">
<stop stop-color="white"/>
<stop offset="1" stop-color="#6833D4"/>
</linearGradient>
</defs>
</svg>
