<svg width="225" height="252" viewBox="0 0 225 252" fill="none" xmlns="http://www.w3.org/2000/svg">
<path d="M76.157 0.681885C85.0299 0.681885 90.0875 9.50723 90.0875 18.3702V72.6886H78.8552C76.6709 67.2948 72.6765 62.8278 67.5566 60.0531C62.4367 57.2785 56.51 56.3689 50.7924 57.4803C45.0747 58.5917 39.9221 61.6549 36.2175 66.145C32.5128 70.635 30.4869 76.2722 30.4869 82.0906C30.4869 87.909 32.5128 93.5463 36.2175 98.0363C39.9221 102.526 45.0747 105.59 50.7924 106.701C56.51 107.812 62.4367 106.903 67.5566 104.128C72.6765 101.353 76.6709 96.8865 78.8552 91.4926H90.0875V228.11C90.0875 235.581 86.9249 243.015 80.2608 246.412C74.2181 249.574 67.5043 251.242 60.6828 251.276C41.7323 251.276 27.6387 241.699 18.5651 230.366C12.281 222.546 7.89917 213.376 5.76405 203.577C-0.0965996 201.85 -5.5244 198.902 -10.1619 194.927C-19.0724 187.268 -26 174.982 -26 156.88C-26 147.416 -25.3223 139.167 -23.6155 132.235H29.22C37.7289 132.235 44.782 138.503 45.9743 146.664C40.5955 148.886 36.1574 152.907 33.4195 158.038C30.6816 163.169 29.8141 169.091 30.9655 174.791C32.1169 180.49 35.2155 185.613 39.7312 189.281C44.2469 192.95 49.8987 194.938 55.7194 194.903C61.5401 194.868 67.1678 192.814 71.6393 189.091C76.1107 185.369 79.148 180.209 80.2311 174.497C81.3143 168.784 80.376 162.873 77.577 157.775C74.7779 152.677 70.292 148.709 64.8871 146.551C64.2278 137.551 60.184 129.135 53.5679 122.991C46.9517 116.847 38.2534 113.432 29.22 113.431H-12.948C-11.0687 111.879 -8.97672 110.604 -6.73575 109.645C-8.0294 105.039 -8.77913 100.297 -8.96965 95.5167C-9.3838 86.3027 -8.0033 76.7127 -5.2674 68.1757C-2.5566 59.7766 1.7355 51.5906 7.7595 45.9368C11.5383 42.2588 16.3257 39.7849 21.5143 38.8289C24.0117 28.2987 30.3746 19.5987 38.4945 13.2931C48.9235 5.16977 62.5904 0.681885 76.1444 0.681885H76.157ZM108.913 188.647H129.62C139.106 188.647 148.204 184.882 154.911 178.182C161.619 171.482 165.387 162.395 165.387 152.919V130.417C170.787 128.235 175.259 124.245 178.037 119.131C180.815 114.017 181.725 108.097 180.613 102.385C179.5 96.6741 176.434 91.5272 171.939 87.8267C167.443 84.1262 161.8 82.1026 155.975 82.1026C150.15 82.1026 144.507 84.1262 140.011 87.8267C135.516 91.5272 132.45 96.6741 131.337 102.385C130.225 108.097 131.135 114.017 133.913 119.131C136.691 124.245 141.163 128.235 146.562 130.417V152.919C146.562 157.407 144.777 161.712 141.6 164.886C138.423 168.06 134.113 169.843 129.62 169.843H108.913V18.3702C108.913 9.50723 113.97 0.681885 122.843 0.681885C136.422 0.681885 150.077 5.16977 160.506 13.2931C168.625 19.5987 174.988 28.3112 177.486 38.8289C182.757 39.7064 187.45 42.3891 191.24 45.9368C197.264 51.5906 201.557 59.764 204.267 68.1757C207.003 76.7127 208.384 86.3027 207.97 95.5167C207.756 100.23 207.066 105.044 205.736 109.645L206.564 110.021C211.208 112.202 214.973 115.624 217.784 120.175C223.117 128.762 225 141.123 225 156.88C225 174.995 218.072 187.293 209.162 194.927C204.521 198.903 199.089 201.851 193.223 203.577C191.092 213.374 186.714 222.544 180.435 230.366C171.361 241.699 157.268 251.276 138.305 251.276C131.484 251.246 124.77 249.582 118.727 246.425C112.075 243.015 108.913 235.581 108.913 228.11V188.647ZM49.3 82.0906C49.3 80.4283 49.9611 78.834 51.1379 77.6585C52.3147 76.483 53.9108 75.8226 55.575 75.8226C57.2392 75.8226 58.8353 76.483 60.0121 77.6585C61.1889 78.834 61.85 80.4283 61.85 82.0906C61.85 83.753 61.1889 85.3473 60.0121 86.5228C58.8353 87.6983 57.2392 88.3586 55.575 88.3586C53.9108 88.3586 52.3147 87.6983 51.1379 86.5228C49.9611 85.3473 49.3 83.753 49.3 82.0906ZM55.575 163.575C53.9108 163.575 52.3147 164.235 51.1379 165.41C49.9611 166.586 49.3 168.18 49.3 169.843C49.3 171.505 49.9611 173.099 51.1379 174.275C52.3147 175.45 53.9108 176.111 55.575 176.111C57.2392 176.111 58.8353 175.45 60.0121 174.275C61.1889 173.099 61.85 171.505 61.85 169.843C61.85 168.18 61.1889 166.586 60.0121 165.41C58.8353 164.235 57.2392 163.575 55.575 163.575ZM149.7 107.163C149.7 108.825 150.361 110.419 151.538 111.595C152.715 112.77 154.311 113.431 155.975 113.431C157.639 113.431 159.235 112.77 160.412 111.595C161.589 110.419 162.25 108.825 162.25 107.163C162.25 105.5 161.589 103.906 160.412 102.73C159.235 101.555 157.639 100.895 155.975 100.895C154.311 100.895 152.715 101.555 151.538 102.73C150.361 103.906 149.7 105.5 149.7 107.163Z" fill="white"/>
</svg>
