<svg width="233" height="251" viewBox="0 0 233 251" fill="none" xmlns="http://www.w3.org/2000/svg">
<path d="M102.157 0C111.03 0 116.088 8.82534 116.088 17.6883V72.0068H104.855C102.671 66.613 98.6765 62.1459 93.5566 59.3713C88.4367 56.5966 82.51 55.687 76.7924 56.7984C71.0747 57.9098 65.9221 60.973 62.2175 65.4631C58.5128 69.9531 56.4869 75.5904 56.4869 81.4088C56.4869 87.2272 58.5128 92.8644 62.2175 97.3545C65.9221 101.844 71.0747 104.908 76.7924 106.019C82.51 107.131 88.4367 106.221 93.5566 103.446C98.6765 100.672 102.671 96.2046 104.855 90.8108H116.088V227.428C116.088 234.9 112.925 242.333 106.261 245.731C100.218 248.892 93.5043 250.56 86.6828 250.595C67.7323 250.595 53.6387 241.017 44.5651 229.685C38.281 221.864 33.8992 212.694 31.7641 202.895C25.9034 201.168 20.4756 198.22 15.8381 194.245C6.9276 186.586 0 174.3 0 156.199C0 146.734 0.677701 138.485 2.3845 131.553H55.22C63.7289 131.553 70.782 137.821 71.9743 145.982C66.5955 148.204 62.1574 152.225 59.4195 157.356C56.6816 162.487 55.8141 168.409 56.9655 174.109C58.1169 179.808 61.2155 184.931 65.7312 188.6C70.2469 192.268 75.8987 194.256 81.7194 194.221C87.5401 194.186 93.1678 192.132 97.6393 188.409C102.111 184.687 105.148 179.528 106.231 173.815C107.314 168.102 106.376 162.191 103.577 157.093C100.778 151.995 96.292 148.027 90.8871 145.869C90.2278 136.87 86.184 128.453 79.5679 122.309C72.9517 116.166 64.2534 112.75 55.22 112.749H13.052C14.9313 111.197 17.0233 109.922 19.2643 108.963C17.9706 104.357 17.2209 99.6151 17.0304 94.8348C16.6162 85.6209 17.9967 76.0308 20.7326 67.4938C23.4434 59.0947 27.7355 50.9087 33.7595 45.2549C37.5383 41.5769 42.3257 39.103 47.5143 38.147C50.0117 27.6168 56.3746 18.9168 64.4945 12.6112C74.9235 4.48789 88.5904 0 102.144 0H102.157ZM134.913 187.965H155.62C165.106 187.965 174.204 184.201 180.911 177.5C187.619 170.8 191.387 161.713 191.387 152.237V129.735C196.787 127.553 201.259 123.563 204.037 118.449C206.815 113.335 207.725 107.415 206.613 101.703C205.5 95.9922 202.434 90.8453 197.939 87.1448C193.443 83.4443 187.8 81.4207 181.975 81.4207C176.15 81.4207 170.507 83.4443 166.011 87.1448C161.516 90.8453 158.45 95.9922 157.337 101.703C156.225 107.415 157.135 113.335 159.913 118.449C162.691 123.563 167.163 127.553 172.562 129.735V152.237C172.562 156.726 170.777 161.03 167.6 164.204C164.423 167.378 160.113 169.161 155.62 169.161H134.913V17.6883C134.913 8.82534 139.97 0 148.843 0C162.422 0 176.077 4.48789 186.506 12.6112C194.625 18.9168 200.988 27.6293 203.486 38.147C208.757 39.0246 213.45 41.7073 217.24 45.2549C223.264 50.9087 227.557 59.0821 230.267 67.4938C233.003 76.0308 234.384 85.6209 233.97 94.8348C233.756 99.5483 233.066 104.362 231.736 108.963L232.564 109.339C237.208 111.52 240.973 114.943 243.784 119.493C249.117 128.08 251 140.441 251 156.199C251 174.313 244.072 186.611 235.162 194.245C230.521 198.221 225.089 201.169 219.223 202.895C217.092 212.692 212.714 221.863 206.435 229.685C197.361 241.017 183.268 250.595 164.305 250.595C157.484 250.564 150.77 248.9 144.727 245.743C138.075 242.333 134.913 234.9 134.913 227.428V187.965ZM75.3 81.4088C75.3 79.7464 75.9611 78.1521 77.1379 76.9766C78.3147 75.8011 79.9108 75.1408 81.575 75.1408C83.2392 75.1408 84.8353 75.8011 86.0121 76.9766C87.1889 78.1521 87.85 79.7464 87.85 81.4088C87.85 83.0711 87.1889 84.6654 86.0121 85.8409C84.8353 87.0164 83.2392 87.6768 81.575 87.6768C79.9108 87.6768 78.3147 87.0164 77.1379 85.8409C75.9611 84.6654 75.3 83.0711 75.3 81.4088ZM81.575 162.893C79.9108 162.893 78.3147 163.553 77.1379 164.729C75.9611 165.904 75.3 167.498 75.3 169.161C75.3 170.823 75.9611 172.417 77.1379 173.593C78.3147 174.768 79.9108 175.429 81.575 175.429C83.2392 175.429 84.8353 174.768 86.0121 173.593C87.1889 172.417 87.85 170.823 87.85 169.161C87.85 167.498 87.1889 165.904 86.0121 164.729C84.8353 163.553 83.2392 162.893 81.575 162.893ZM175.7 106.481C175.7 108.143 176.361 109.737 177.538 110.913C178.715 112.088 180.311 112.749 181.975 112.749C183.639 112.749 185.235 112.088 186.412 110.913C187.589 109.737 188.25 108.143 188.25 106.481C188.25 104.818 187.589 103.224 186.412 102.049C185.235 100.873 183.639 100.213 181.975 100.213C180.311 100.213 178.715 100.873 177.538 102.049C176.361 103.224 175.7 104.818 175.7 106.481Z" fill="white"/>
</svg>
