<svg width="27" height="27" viewBox="0 0 27 27" fill="none" xmlns="http://www.w3.org/2000/svg">
<path d="M10.7033 0.189453C11.6329 0.189453 12.1628 1.11411 12.1628 2.04271V7.73381H10.986C10.7571 7.16868 10.3386 6.70066 9.80219 6.40995C9.26576 6.11924 8.64481 6.02394 8.04576 6.14039C7.4467 6.25683 6.90684 6.57777 6.5187 7.0482C6.13056 7.51864 5.9183 8.10927 5.9183 8.71888C5.9183 9.32849 6.13056 9.91912 6.5187 10.3896C6.90684 10.86 7.4467 11.1809 8.04576 11.2974C8.64481 11.4138 9.26576 11.3185 9.80219 11.0278C10.3386 10.7371 10.7571 10.2691 10.986 9.70396H12.1628V24.0177C12.1628 24.8005 11.8315 25.5794 11.1333 25.9353C10.5001 26.2666 9.79671 26.4414 9.08201 26.445C7.09651 26.445 5.61988 25.4415 4.66921 24.2542C4.01081 23.4348 3.55171 22.474 3.32801 21.4474C2.71397 21.2664 2.14529 20.9575 1.6594 20.5411C0.725824 19.7386 0 18.4514 0 16.5548C0 15.5632 0.0710046 14.6989 0.249831 13.9726H5.78556C6.67706 13.9726 7.41603 14.6293 7.54095 15.4844C6.9774 15.7173 6.51241 16.1385 6.22555 16.6761C5.93869 17.2137 5.8478 17.8342 5.96843 18.4313C6.08907 19.0285 6.41373 19.5652 6.88685 19.9496C7.35996 20.334 7.95212 20.5422 8.56198 20.5385C9.17183 20.5349 9.76146 20.3196 10.2299 19.9296C10.6984 19.5396 11.0167 18.9991 11.1301 18.4005C11.2436 17.802 11.1453 17.1826 10.8521 16.6485C10.5588 16.1144 10.0888 15.6987 9.5225 15.4725C9.45343 14.5297 9.02974 13.6478 8.33655 13.0041C7.64336 12.3604 6.73201 12.0026 5.78556 12.0025H1.3675C1.5644 11.8399 1.78358 11.7063 2.01837 11.6058C1.88283 11.1232 1.80428 10.6264 1.78432 10.1256C1.74093 9.16019 1.88557 8.15542 2.17221 7.26097C2.45623 6.38097 2.90593 5.5233 3.53708 4.93094C3.933 4.54559 4.43458 4.28639 4.97821 4.18623C5.23987 3.08294 5.90653 2.17142 6.75727 1.51077C7.84995 0.659662 9.28187 0.189453 10.702 0.189453H10.7033ZM14.1352 19.8831H16.3048C17.2986 19.8831 18.2518 19.4887 18.9546 18.7867C19.6574 18.0847 20.0522 17.1326 20.0522 16.1398V13.7822C20.618 13.5536 21.0865 13.1355 21.3776 12.5997C21.6686 12.0639 21.764 11.4436 21.6474 10.8452C21.5308 10.2468 21.2095 9.70757 20.7386 9.31986C20.2676 8.93215 19.6763 8.72013 19.066 8.72013C18.4557 8.72013 17.8645 8.93215 17.3935 9.31986C16.9225 9.70757 16.6012 10.2468 16.4847 10.8452C16.3681 11.4436 16.4635 12.0639 16.7545 12.5997C17.0456 13.1355 17.5141 13.5536 18.0799 13.7822V16.1398C18.0799 16.61 17.8928 17.061 17.5599 17.3936C17.227 17.7261 16.7755 17.9129 16.3048 17.9129H14.1352V2.04271C14.1352 1.11411 14.6651 0.189453 15.5947 0.189453C17.0174 0.189453 18.448 0.659662 19.5407 1.51077C20.3915 2.17142 21.0581 3.08426 21.3198 4.18623C21.872 4.27817 22.3638 4.55924 22.7609 4.93094C23.3921 5.5233 23.8418 6.37966 24.1258 7.26097C24.4124 8.15542 24.5571 9.16019 24.5137 10.1256C24.4913 10.6194 24.419 11.1238 24.2796 11.6058L24.3664 11.6452C24.8529 11.8737 25.2474 12.2323 25.5419 12.7091C26.1007 13.6088 26.298 14.9038 26.298 16.5548C26.298 18.4527 25.5722 19.7412 24.6386 20.5411C24.1523 20.9577 23.5832 21.2665 22.9687 21.4474C22.7453 22.4739 22.2867 23.4346 21.6288 24.2542C20.6781 25.4415 19.2015 26.445 17.2147 26.445C16.5001 26.4418 15.7967 26.2675 15.1634 25.9367C14.4665 25.5794 14.1352 24.8005 14.1352 24.0177V19.8831ZM7.8894 8.71888C7.8894 8.54471 7.95866 8.37767 8.08196 8.25451C8.20525 8.13135 8.37248 8.06217 8.54684 8.06217C8.72121 8.06217 8.88844 8.13135 9.01173 8.25451C9.13503 8.37767 9.20429 8.54471 9.20429 8.71888C9.20429 8.89305 9.13503 9.06009 9.01173 9.18325C8.88844 9.30641 8.72121 9.3756 8.54684 9.3756C8.37248 9.3756 8.20525 9.30641 8.08196 9.18325C7.95866 9.06009 7.8894 8.89305 7.8894 8.71888ZM8.54684 17.2562C8.37248 17.2562 8.20525 17.3254 8.08196 17.4485C7.95866 17.5717 7.8894 17.7387 7.8894 17.9129C7.8894 18.0871 7.95866 18.2541 8.08196 18.3773C8.20525 18.5004 8.37248 18.5696 8.54684 18.5696C8.72121 18.5696 8.88844 18.5004 9.01173 18.3773C9.13503 18.2541 9.20429 18.0871 9.20429 17.9129C9.20429 17.7387 9.13503 17.5717 9.01173 17.4485C8.88844 17.3254 8.72121 17.2562 8.54684 17.2562ZM18.4086 11.3457C18.4086 11.5199 18.4779 11.687 18.6012 11.8101C18.7244 11.9333 18.8917 12.0025 19.066 12.0025C19.2404 12.0025 19.4076 11.9333 19.5309 11.8101C19.6542 11.687 19.7235 11.5199 19.7235 11.3457C19.7235 11.1716 19.6542 11.0045 19.5309 10.8814C19.4076 10.7582 19.2404 10.689 19.066 10.689C18.8917 10.689 18.7244 10.7582 18.6012 10.8814C18.4779 11.0045 18.4086 11.1716 18.4086 11.3457Z" fill="#FEFEFE"/>
</svg>
